<svg width="18" height="18" viewBox="0 0 18 18" fill="none" xmlns="http://www.w3.org/2000/svg">
<path d="M14 16H16V2H14V16ZM4 11C4.28333 11 4.52083 10.9042 4.7125 10.7125C4.90417 10.5208 5 10.2833 5 10C5 9.71667 4.90417 9.47917 4.7125 9.2875C4.52083 9.09583 4.28333 9 4 9C3.71667 9 3.47917 9.09583 3.2875 9.2875C3.09583 9.47917 3 9.71667 3 10C3 10.2833 3.09583 10.5208 3.2875 10.7125C3.47917 10.9042 3.71667 11 4 11ZM4 14C4.28333 14 4.52083 13.9042 4.7125 13.7125C4.90417 13.5208 5 13.2833 5 13C5 12.7167 4.90417 12.4792 4.7125 12.2875C4.52083 12.0958 4.28333 12 4 12C3.71667 12 3.47917 12.0958 3.2875 12.2875C3.09583 12.4792 3 12.7167 3 13C3 13.2833 3.09583 13.5208 3.2875 13.7125C3.47917 13.9042 3.71667 14 4 14ZM3 8H11V4H3V8ZM7 11C7.28333 11 7.52083 10.9042 7.7125 10.7125C7.90417 10.5208 8 10.2833 8 10C8 9.71667 7.90417 9.47917 7.7125 9.2875C7.52083 9.09583 7.28333 9 7 9C6.71667 9 6.47917 9.09583 6.2875 9.2875C6.09583 9.47917 6 9.71667 6 10C6 10.2833 6.09583 10.5208 6.2875 10.7125C6.47917 10.9042 6.71667 11 7 11ZM7 14C7.28333 14 7.52083 13.9042 7.7125 13.7125C7.90417 13.5208 8 13.2833 8 13C8 12.7167 7.90417 12.4792 7.7125 12.2875C7.52083 12.0958 7.28333 12 7 12C6.71667 12 6.47917 12.0958 6.2875 12.2875C6.09583 12.4792 6 12.7167 6 13C6 13.2833 6.09583 13.5208 6.2875 13.7125C6.47917 13.9042 6.71667 14 7 14ZM10 11C10.2833 11 10.5208 10.9042 10.7125 10.7125C10.9042 10.5208 11 10.2833 11 10C11 9.71667 10.9042 9.47917 10.7125 9.2875C10.5208 9.09583 10.2833 9 10 9C9.71667 9 9.47917 9.09583 9.2875 9.2875C9.09583 9.47917 9 9.71667 9 10C9 10.2833 9.09583 10.5208 9.2875 10.7125C9.47917 10.9042 9.71667 11 10 11ZM10 14C10.2833 14 10.5208 13.9042 10.7125 13.7125C10.9042 13.5208 11 13.2833 11 13C11 12.7167 10.9042 12.4792 10.7125 12.2875C10.5208 12.0958 10.2833 12 10 12C9.71667 12 9.47917 12.0958 9.2875 12.2875C9.09583 12.4792 9 12.7167 9 13C9 13.2833 9.09583 13.5208 9.2875 13.7125C9.47917 13.9042 9.71667 14 10 14ZM14 18C13.6167 18 13.2792 17.9083 12.9875 17.725C12.6958 17.5417 12.4583 17.3 12.275 17H2C1.45 17 0.979167 16.8042 0.5875 16.4125C0.195833 16.0208 0 15.55 0 15V3C0 2.45 0.195833 1.97917 0.5875 1.5875C0.979167 1.19583 1.45 1 2 1H12.275C12.4583 0.7 12.6958 0.458333 12.9875 0.275C13.2792 0.0916667 13.6167 0 14 0H16C16.55 0 17.0208 0.195833 17.4125 0.5875C17.8042 0.979167 18 1.45 18 2V16C18 16.55 17.8042 17.0208 17.4125 17.4125C17.0208 17.8042 16.55 18 16 18H14Z" fill="#173969"/>
</svg>
