<svg width="1728" height="102" viewBox="0 0 1728 102" fill="none" xmlns="http://www.w3.org/2000/svg">
<path opacity="0.991" fill-rule="evenodd" clip-rule="evenodd" d="M1620 0.0129799C1638.58 -0.18192 1656.91 1.81808 1675 6.01298C1675.67 6.01298 1676 6.34628 1676 7.01298C1677.11 7.06988 1678.11 7.40318 1679 8.01298C1679.33 8.01298 1679.67 8.01298 1680 8.01298C1681.62 8.55098 1683.28 8.88428 1685 9.01298C1685.67 9.01298 1686 9.34628 1686 10.013C1688.83 10.6214 1691.49 11.6214 1694 13.013C1694.33 13.013 1694.67 13.013 1695 13.013C1696.33 13.6797 1697.67 14.3463 1699 15.013C1699.33 15.013 1699.67 15.013 1700 15.013C1702.67 16.3463 1705.33 17.6797 1708 19.013C1708.33 19.013 1708.67 19.013 1709 19.013C1710.72 19.8207 1712.39 20.8207 1714 22.013C1714.33 22.013 1714.67 22.013 1715 22.013C1716 22.6797 1717 23.3463 1718 24.013C1718.33 24.013 1718.67 24.013 1719 24.013C1720.01 25.1867 1721.35 25.8534 1723 26.013C1723.67 26.013 1724 26.3463 1724 27.013C1724.79 27.9143 1725.79 28.5809 1727 29.013C1727.33 29.013 1727.67 29.013 1728 29.013C1728.67 29.013 1729 29.3463 1729 30.013C1730 30.6797 1731 31.3463 1732 32.013C1732.33 32.013 1732.67 32.013 1733 32.013C1733.67 32.013 1734 32.3463 1734 33.013C1735.29 34.0014 1736.63 35.0014 1738 36.013C1738.33 36.013 1738.67 36.013 1739 36.013C1739.67 36.013 1740 36.3463 1740 37.013C1740.33 37.013 1740.67 37.013 1741 37.013C1741.67 37.013 1742 37.3463 1742 38.013C1742.67 38.013 1743 38.3463 1743 39.013C1743 39.6797 1743.33 40.013 1744 40.013C1744.33 40.013 1744.67 40.013 1745 40.013C1745.33 41.013 1746 41.6797 1747 42.013C1747.33 42.013 1747.67 42.013 1748 42.013C1748.67 42.013 1749 42.3463 1749 43.013C1750.33 44.013 1751.67 45.013 1753 46.013C1753.33 46.013 1753.67 46.013 1754 46.013C1754.67 46.013 1755 46.3463 1755 47.013C1755 47.6797 1755.33 48.013 1756 48.013C1756.33 48.013 1756.67 48.013 1757 48.013C1757.67 48.013 1758 48.3463 1758 49.013C1759.33 50.013 1760.67 51.013 1762 52.013C1762.33 52.013 1762.67 52.013 1763 52.013C1763.67 52.013 1764 52.3463 1764 53.013C1765.33 54.013 1766.67 55.013 1768 56.013C1768.33 56.013 1768.67 56.013 1769 56.013C1769.34 56.8512 1770.01 57.1846 1771 57.013C1771.67 57.013 1772 57.3463 1772 58.013C1772 58.6797 1772.33 59.013 1773 59.013C1773.33 59.013 1773.67 59.013 1774 59.013C1774.34 59.8512 1775.01 60.1846 1776 60.013C1776.67 60.013 1777 60.3463 1777 61.013C1777.79 61.9143 1778.79 62.5809 1780 63.013C1780.33 63.013 1780.67 63.013 1781 63.013C1781.67 63.013 1782 63.3463 1782 64.013C1782 64.6797 1782.33 65.013 1783 65.013C1783.33 65.013 1783.67 65.013 1784 65.013C1785 65.6797 1786 66.3463 1787 67.013C1787.33 67.013 1787.67 67.013 1788 67.013C1789 67.6797 1790 68.3463 1791 69.013C1791.33 69.013 1791.67 69.013 1792 69.013C1792.89 69.6228 1793.89 69.9561 1795 70.013C1795.67 70.013 1796 70.3463 1796 71.013C1796.33 71.013 1796.67 71.013 1797 71.013C1797.67 71.013 1798 71.3463 1798 72.013C1798.67 72.3463 1799.33 72.6797 1800 73.013C1800.33 73.013 1800.67 73.013 1801 73.013C1801 73.6797 1801.33 74.013 1802 74.013C1802.33 74.013 1802.67 74.013 1803 74.013C1803.67 74.3463 1804.33 74.6797 1805 75.013C1805.33 75.013 1805.67 75.013 1806 75.013C1806.33 75.013 1806.67 75.013 1807 75.013C1807.67 75.013 1808 75.3463 1808 76.013C1812.08 77.1503 1816.08 78.4836 1820 80.013C1820.33 80.013 1820.67 80.013 1821 80.013C1860.39 89.0923 1899.39 87.7589 1938 76.013C1938.67 76.013 1939 75.6797 1939 75.013C1940.46 75.0804 1941.79 74.7471 1943 74.013C1943.33 74.013 1943.67 74.013 1944 74.013C1945.33 73.3463 1946.67 72.6797 1948 72.013C1948.67 72.013 1949 71.6797 1949 71.013C1950.11 70.9561 1951.11 70.6228 1952 70.013C1952.33 70.013 1952.67 70.013 1953 70.013C1953.67 70.013 1954 69.6797 1954 69.013C1954.33 69.013 1954.67 69.013 1955 69.013C1956.21 68.5809 1957.21 67.9143 1958 67.013C1958.33 67.013 1958.67 67.013 1959 67.013C1960 66.3463 1961 65.6797 1962 65.013C1962.33 65.013 1962.67 65.013 1963 65.013C1964 64.3463 1965 63.6797 1966 63.013C1966.67 63.013 1967 62.6797 1967 62.013C1967.33 62.013 1967.67 62.013 1968 62.013C1969 61.3463 1970 60.6797 1971 60.013C1971.67 60.013 1972 59.6797 1972 59.013C1972.33 59.013 1972.67 59.013 1973 59.013C1974 58.3463 1975 57.6797 1976 57.013C1976.67 57.013 1977 56.6797 1977 56.013C1977.33 56.013 1977.67 56.013 1978 56.013C1979.37 55.0014 1980.7 54.0014 1982 53.013C1982.67 53.013 1983 52.6797 1983 52.013C1983.33 52.013 1983.67 52.013 1984 52.013C1985.37 51.0014 1986.7 50.0014 1988 49.013C1988.67 49.013 1989 48.6797 1989 48.013C1989.33 48.013 1989.67 48.013 1990 48.013C1990.67 48.013 1991 47.6797 1991 47.013C1991.67 47.013 1992 46.6797 1992 46.013C1992.33 46.013 1992.67 46.013 1993 46.013C1994.37 45.0014 1995.7 44.0014 1997 43.013C1997.67 43.013 1998 42.6797 1998 42.013C1998.33 42.013 1998.67 42.013 1999 42.013C1999.67 42.013 2000 41.6797 2000 41.013C2000.67 41.013 2001 40.6797 2001 40.013C2001.33 40.013 2001.67 40.013 2002 40.013C2003.33 39.013 2004.67 38.013 2006 37.013C2006.67 37.013 2007 36.6797 2007 36.013C2007.33 36.013 2007.67 36.013 2008 36.013C2009 35.3463 2010 34.6797 2011 34.013C2011.67 34.013 2012 33.6797 2012 33.013C2012.67 33.013 2013 32.6797 2013 32.013C2014.65 31.8534 2015.99 31.1867 2017 30.013C2017.67 30.013 2018 29.6797 2018 29.013C2018.33 29.013 2018.67 29.013 2019 29.013C2019.67 29.013 2020 28.6797 2020 28.013C2020.99 28.1846 2021.66 27.8512 2022 27.013C2022.67 27.013 2023 26.6797 2023 26.013C2023.33 26.013 2023.67 26.013 2024 26.013C2024.33 26.013 2024.67 26.013 2025 26.013C2025.67 26.013 2026 25.6797 2026 25.013C2026.67 25.013 2027 24.6797 2027 24.013C2028.65 23.8534 2029.99 23.1867 2031 22.013C2031.33 22.013 2031.67 22.013 2032 22.013C2033 21.3463 2034 20.6797 2035 20.013C2035.33 20.013 2035.67 20.013 2036 20.013C2038.67 18.6797 2041.33 17.3463 2044 16.013C2044.33 16.013 2044.67 16.013 2045 16.013C2045.67 16.013 2046 15.6797 2046 15.013C2046.33 15.013 2046.67 15.013 2047 15.013C2047.67 14.6797 2048.33 14.3463 2049 14.013C2049.33 14.013 2049.67 14.013 2050 14.013C2051.33 13.3463 2052.67 12.6797 2054 12.013C2054.33 12.013 2054.67 12.013 2055 12.013C2056.55 11.0722 2058.22 10.4055 2060 10.013C2060.67 10.013 2061 9.67968 2061 9.01298C2081.87 2.84112 2103.2 -0.15888 2125 0.0129799C2125 5.01298 2125 10.013 2125 15.013C2102.61 15.245 2080.94 19.245 2060 27.013C2059.33 27.013 2059 27.3463 2059 28.013C2056.17 28.6214 2053.51 29.6214 2051 31.013C2050.67 31.013 2050.33 31.013 2050 31.013C2049.33 31.013 2049 31.3463 2049 32.013C2048.33 32.013 2048 32.3463 2048 33.013C2046.89 33.0699 2045.89 33.4032 2045 34.013C2044.33 34.013 2044 34.3463 2044 35.013C2042.89 35.0699 2041.89 35.4032 2041 36.013C2040.33 36.013 2040 36.3463 2040 37.013C2039.67 37.013 2039.33 37.013 2039 37.013C2038 37.6797 2037 38.3463 2036 39.013C2035.67 39.013 2035.33 39.013 2035 39.013C2033.63 40.0246 2032.3 41.0246 2031 42.013C2030.33 42.013 2030 42.3463 2030 43.013C2029.67 43.013 2029.33 43.013 2029 43.013C2028 43.6797 2027 44.3463 2026 45.013C2025.33 45.013 2025 45.3463 2025 46.013C2024.67 46.013 2024.33 46.013 2024 46.013C2023 46.6797 2022 47.3463 2021 48.013C2020.33 48.013 2020 48.3463 2020 49.013C2019.33 49.013 2019 49.3463 2019 50.013C2018.67 50.013 2018.33 50.013 2018 50.013C2017.33 50.013 2017 50.3463 2017 51.013C2016.33 51.013 2016 51.3463 2016 52.013C2015.67 52.013 2015.33 52.013 2015 52.013C2014.33 52.013 2014 52.3463 2014 53.013C2013.33 53.013 2013 53.3463 2013 54.013C2012.67 54.013 2012.33 54.013 2012 54.013C2011.33 54.013 2011 54.3463 2011 55.013C2010.33 55.013 2010 55.3463 2010 56.013C2009.67 56.013 2009.33 56.013 2009 56.013C2007.63 57.0246 2006.3 58.0246 2005 59.013C2004.33 59.013 2004 59.3463 2004 60.013C2003.01 59.8414 2002.34 60.1748 2002 61.013C2001.33 61.013 2001 61.3463 2001 62.013C2000.67 62.013 2000.33 62.013 2000 62.013C1999 62.6797 1998 63.3463 1997 64.013C1996.33 64.013 1996 64.3463 1996 65.013C1995.33 65.013 1995 65.3463 1995 66.013C1994.67 66.013 1994.33 66.013 1994 66.013C1992.79 66.4451 1991.79 67.1117 1991 68.013C1990.33 68.013 1990 68.3463 1990 69.013C1989.67 69.013 1989.33 69.013 1989 69.013C1988.33 69.013 1988 69.3463 1988 70.013C1987.67 70.013 1987.33 70.013 1987 70.013C1986.33 70.013 1986 70.3463 1986 71.013C1985.33 71.013 1985 71.3463 1985 72.013C1984.67 72.013 1984.33 72.013 1984 72.013C1983.33 72.013 1983 72.3463 1983 73.013C1982.67 73.013 1982.33 73.013 1982 73.013C1981.33 73.013 1981 73.3463 1981 74.013C1980.33 74.013 1980 74.3463 1980 75.013C1978.35 75.1726 1977.01 75.8393 1976 77.013C1975.67 77.013 1975.33 77.013 1975 77.013C1974 77.6797 1973 78.3463 1972 79.013C1971.33 79.013 1971 79.3463 1971 80.013C1969.89 80.0699 1968.89 80.4032 1968 81.013C1967.67 81.013 1967.33 81.013 1967 81.013C1966.33 81.013 1966 81.3463 1966 82.013C1965.33 82.013 1965 82.3463 1965 83.013C1963.89 83.0699 1962.89 83.4032 1962 84.013C1961.67 84.013 1961.33 84.013 1961 84.013C1959.67 84.6797 1958.33 85.3463 1957 86.013C1956.33 86.013 1956 86.3463 1956 87.013C1954.54 86.9456 1953.21 87.2789 1952 88.013C1951.33 88.013 1951 88.3463 1951 89.013C1950.33 89.013 1949.67 89.013 1949 89.013C1948.33 89.013 1948 89.3463 1948 90.013C1912.73 100.918 1876.73 104.084 1840 99.513C1828.7 98.088 1817.7 95.588 1807 92.013C1806.67 92.013 1806.33 92.013 1806 92.013C1803.39 91.1425 1800.72 90.4758 1798 90.013C1798 89.3463 1797.67 89.013 1797 89.013C1795.67 88.6797 1794.33 88.3463 1793 88.013C1793 87.3463 1792.67 87.013 1792 87.013C1790.67 86.6797 1789.33 86.3463 1788 86.013C1788 85.3463 1787.67 85.013 1787 85.013C1784.21 83.865 1781.54 82.5316 1779 81.013C1778.67 81.013 1778.33 81.013 1778 81.013C1777.11 80.4032 1776.11 80.0699 1775 80.013C1775 79.3463 1774.67 79.013 1774 79.013C1772.32 77.5055 1770.32 76.5055 1768 76.013C1768 75.3463 1767.67 75.013 1767 75.013C1766 74.3463 1765 73.6797 1764 73.013C1763.67 73.013 1763.33 73.013 1763 73.013C1763 72.3463 1762.67 72.013 1762 72.013C1761 71.3463 1760 70.6797 1759 70.013C1758.67 70.013 1758.33 70.013 1758 70.013C1758 69.3463 1757.67 69.013 1757 69.013C1756.67 69.013 1756.33 69.013 1756 69.013C1756 68.3463 1755.67 68.013 1755 68.013C1755 67.3463 1754.67 67.013 1754 67.013C1753.67 67.013 1753.33 67.013 1753 67.013C1753 66.3463 1752.67 66.013 1752 66.013C1752 65.3463 1751.67 65.013 1751 65.013C1750.67 65.013 1750.33 65.013 1750 65.013C1750 64.3463 1749.67 64.013 1749 64.013C1747.67 63.013 1746.33 62.013 1745 61.013C1744.67 61.013 1744.33 61.013 1744 61.013C1744 60.3463 1743.67 60.013 1743 60.013C1741.67 59.013 1740.33 58.013 1739 57.013C1738.67 57.013 1738.33 57.013 1738 57.013C1737.67 56.013 1737 55.3463 1736 55.013C1735.67 55.013 1735.33 55.013 1735 55.013C1735 54.3463 1734.67 54.013 1734 54.013C1732.67 53.013 1731.33 52.013 1730 51.013C1729.67 51.013 1729.33 51.013 1729 51.013C1729 50.3463 1728.67 50.013 1728 50.013C1727.67 50.013 1727.33 50.013 1727 50.013C1727 49.3463 1726.67 49.013 1726 49.013C1726 48.3463 1725.67 48.013 1725 48.013C1724.21 47.1117 1723.21 46.4451 1722 46.013C1721.67 46.013 1721.33 46.013 1721 46.013C1721 45.3463 1720.67 45.013 1720 45.013C1718.71 44.0246 1717.37 43.0246 1716 42.013C1715.67 42.013 1715.33 42.013 1715 42.013C1715 41.3463 1714.67 41.013 1714 41.013C1713 40.3463 1712 39.6797 1711 39.013C1710.67 39.013 1710.33 39.013 1710 39.013C1708.99 37.8393 1707.65 37.1726 1706 37.013C1706 36.3463 1705.67 36.013 1705 36.013C1704.11 35.4032 1703.11 35.0699 1702 35.013C1702 34.3463 1701.67 34.013 1701 34.013C1699.28 33.2053 1697.61 32.2053 1696 31.013C1695.67 31.013 1695.33 31.013 1695 31.013C1692.49 29.6214 1689.83 28.6214 1687 28.013C1687 27.3463 1686.67 27.013 1686 27.013C1682.8 25.6139 1679.47 24.6139 1676 24.013C1676 23.3463 1675.67 23.013 1675 23.013C1657.04 17.9239 1638.71 15.2573 1620 15.013C1620 10.013 1620 5.01298 1620 0.0129799Z" fill="#FBFBFB"/>
<path opacity="0.991" fill-rule="evenodd" clip-rule="evenodd" d="M1122 0.0129799C1140.58 -0.18192 1158.91 1.81808 1177 6.01298C1177.67 6.01298 1178 6.34628 1178 7.01298C1179.11 7.06988 1180.11 7.40318 1181 8.01298C1181.33 8.01298 1181.67 8.01298 1182 8.01298C1183.62 8.55098 1185.28 8.88428 1187 9.01298C1187.67 9.01298 1188 9.34628 1188 10.013C1190.83 10.6214 1193.49 11.6214 1196 13.013C1196.33 13.013 1196.67 13.013 1197 13.013C1198.33 13.6797 1199.67 14.3463 1201 15.013C1201.33 15.013 1201.67 15.013 1202 15.013C1204.67 16.3463 1207.33 17.6797 1210 19.013C1210.33 19.013 1210.67 19.013 1211 19.013C1212.72 19.8207 1214.39 20.8207 1216 22.013C1216.33 22.013 1216.67 22.013 1217 22.013C1218 22.6797 1219 23.3463 1220 24.013C1220.33 24.013 1220.67 24.013 1221 24.013C1222.01 25.1867 1223.35 25.8534 1225 26.013C1225.67 26.013 1226 26.3463 1226 27.013C1226.79 27.9143 1227.79 28.5809 1229 29.013C1229.33 29.013 1229.67 29.013 1230 29.013C1230.67 29.013 1231 29.3463 1231 30.013C1232 30.6797 1233 31.3463 1234 32.013C1234.33 32.013 1234.67 32.013 1235 32.013C1235.67 32.013 1236 32.3463 1236 33.013C1237.29 34.0014 1238.63 35.0014 1240 36.013C1240.33 36.013 1240.67 36.013 1241 36.013C1241.67 36.013 1242 36.3463 1242 37.013C1242.33 37.013 1242.67 37.013 1243 37.013C1243.67 37.013 1244 37.3463 1244 38.013C1244.67 38.013 1245 38.3463 1245 39.013C1245 39.6797 1245.33 40.013 1246 40.013C1246.33 40.013 1246.67 40.013 1247 40.013C1247.33 41.013 1248 41.6797 1249 42.013C1249.33 42.013 1249.67 42.013 1250 42.013C1250.67 42.013 1251 42.3463 1251 43.013C1252.33 44.013 1253.67 45.013 1255 46.013C1255.33 46.013 1255.67 46.013 1256 46.013C1256.67 46.013 1257 46.3463 1257 47.013C1257 47.6797 1257.33 48.013 1258 48.013C1258.33 48.013 1258.67 48.013 1259 48.013C1259.67 48.013 1260 48.3463 1260 49.013C1261.33 50.013 1262.67 51.013 1264 52.013C1264.33 52.013 1264.67 52.013 1265 52.013C1265.67 52.013 1266 52.3463 1266 53.013C1267.33 54.013 1268.67 55.013 1270 56.013C1270.33 56.013 1270.67 56.013 1271 56.013C1271.34 56.8512 1272.01 57.1846 1273 57.013C1273.67 57.013 1274 57.3463 1274 58.013C1274 58.6797 1274.33 59.013 1275 59.013C1275.33 59.013 1275.67 59.013 1276 59.013C1276.34 59.8512 1277.01 60.1846 1278 60.013C1278.67 60.013 1279 60.3463 1279 61.013C1279.79 61.9143 1280.79 62.5809 1282 63.013C1282.33 63.013 1282.67 63.013 1283 63.013C1283.67 63.013 1284 63.3463 1284 64.013C1284 64.6797 1284.33 65.013 1285 65.013C1285.33 65.013 1285.67 65.013 1286 65.013C1287 65.6797 1288 66.3463 1289 67.013C1289.33 67.013 1289.67 67.013 1290 67.013C1291 67.6797 1292 68.3463 1293 69.013C1293.33 69.013 1293.67 69.013 1294 69.013C1294.89 69.6228 1295.89 69.9561 1297 70.013C1297.67 70.013 1298 70.3463 1298 71.013C1298.33 71.013 1298.67 71.013 1299 71.013C1299.67 71.013 1300 71.3463 1300 72.013C1300.67 72.3463 1301.33 72.6797 1302 73.013C1302.33 73.013 1302.67 73.013 1303 73.013C1303 73.6797 1303.33 74.013 1304 74.013C1304.33 74.013 1304.67 74.013 1305 74.013C1305.67 74.3463 1306.33 74.6797 1307 75.013C1307.33 75.013 1307.67 75.013 1308 75.013C1308.33 75.013 1308.67 75.013 1309 75.013C1309.67 75.013 1310 75.3463 1310 76.013C1314.08 77.1503 1318.08 78.4836 1322 80.013C1322.33 80.013 1322.67 80.013 1323 80.013C1362.39 89.0923 1401.39 87.7589 1440 76.013C1440.67 76.013 1441 75.6797 1441 75.013C1442.46 75.0804 1443.79 74.7471 1445 74.013C1445.33 74.013 1445.67 74.013 1446 74.013C1447.33 73.3463 1448.67 72.6797 1450 72.013C1450.67 72.013 1451 71.6797 1451 71.013C1452.11 70.9561 1453.11 70.6228 1454 70.013C1454.33 70.013 1454.67 70.013 1455 70.013C1455.67 70.013 1456 69.6797 1456 69.013C1456.33 69.013 1456.67 69.013 1457 69.013C1458.21 68.5809 1459.21 67.9143 1460 67.013C1460.33 67.013 1460.67 67.013 1461 67.013C1462 66.3463 1463 65.6797 1464 65.013C1464.33 65.013 1464.67 65.013 1465 65.013C1466 64.3463 1467 63.6797 1468 63.013C1468.67 63.013 1469 62.6797 1469 62.013C1469.33 62.013 1469.67 62.013 1470 62.013C1471 61.3463 1472 60.6797 1473 60.013C1473.67 60.013 1474 59.6797 1474 59.013C1474.33 59.013 1474.67 59.013 1475 59.013C1476 58.3463 1477 57.6797 1478 57.013C1478.67 57.013 1479 56.6797 1479 56.013C1479.33 56.013 1479.67 56.013 1480 56.013C1481.37 55.0014 1482.7 54.0014 1484 53.013C1484.67 53.013 1485 52.6797 1485 52.013C1485.33 52.013 1485.67 52.013 1486 52.013C1487.37 51.0014 1488.7 50.0014 1490 49.013C1490.67 49.013 1491 48.6797 1491 48.013C1491.33 48.013 1491.67 48.013 1492 48.013C1492.67 48.013 1493 47.6797 1493 47.013C1493.67 47.013 1494 46.6797 1494 46.013C1494.33 46.013 1494.67 46.013 1495 46.013C1496.37 45.0014 1497.7 44.0014 1499 43.013C1499.67 43.013 1500 42.6797 1500 42.013C1500.33 42.013 1500.67 42.013 1501 42.013C1501.67 42.013 1502 41.6797 1502 41.013C1502.67 41.013 1503 40.6797 1503 40.013C1503.33 40.013 1503.67 40.013 1504 40.013C1505.33 39.013 1506.67 38.013 1508 37.013C1508.67 37.013 1509 36.6797 1509 36.013C1509.33 36.013 1509.67 36.013 1510 36.013C1511 35.3463 1512 34.6797 1513 34.013C1513.67 34.013 1514 33.6797 1514 33.013C1514.67 33.013 1515 32.6797 1515 32.013C1516.65 31.8534 1517.99 31.1867 1519 30.013C1519.67 30.013 1520 29.6797 1520 29.013C1520.33 29.013 1520.67 29.013 1521 29.013C1521.67 29.013 1522 28.6797 1522 28.013C1522.99 28.1846 1523.66 27.8512 1524 27.013C1524.67 27.013 1525 26.6797 1525 26.013C1525.33 26.013 1525.67 26.013 1526 26.013C1526.33 26.013 1526.67 26.013 1527 26.013C1527.67 26.013 1528 25.6797 1528 25.013C1528.67 25.013 1529 24.6797 1529 24.013C1530.65 23.8534 1531.99 23.1867 1533 22.013C1533.33 22.013 1533.67 22.013 1534 22.013C1535 21.3463 1536 20.6797 1537 20.013C1537.33 20.013 1537.67 20.013 1538 20.013C1540.67 18.6797 1543.33 17.3463 1546 16.013C1546.33 16.013 1546.67 16.013 1547 16.013C1547.67 16.013 1548 15.6797 1548 15.013C1548.33 15.013 1548.67 15.013 1549 15.013C1549.67 14.6797 1550.33 14.3463 1551 14.013C1551.33 14.013 1551.67 14.013 1552 14.013C1553.33 13.3463 1554.67 12.6797 1556 12.013C1556.33 12.013 1556.67 12.013 1557 12.013C1558.55 11.0722 1560.22 10.4055 1562 10.013C1562.67 10.013 1563 9.67968 1563 9.01298C1583.87 2.84112 1605.2 -0.15888 1627 0.0129799C1627 5.01298 1627 10.013 1627 15.013C1604.61 15.245 1582.94 19.245 1562 27.013C1561.33 27.013 1561 27.3463 1561 28.013C1558.17 28.6214 1555.51 29.6214 1553 31.013C1552.67 31.013 1552.33 31.013 1552 31.013C1551.33 31.013 1551 31.3463 1551 32.013C1550.33 32.013 1550 32.3463 1550 33.013C1548.89 33.0699 1547.89 33.4032 1547 34.013C1546.33 34.013 1546 34.3463 1546 35.013C1544.89 35.0699 1543.89 35.4032 1543 36.013C1542.33 36.013 1542 36.3463 1542 37.013C1541.67 37.013 1541.33 37.013 1541 37.013C1540 37.6797 1539 38.3463 1538 39.013C1537.67 39.013 1537.33 39.013 1537 39.013C1535.63 40.0246 1534.3 41.0246 1533 42.013C1532.33 42.013 1532 42.3463 1532 43.013C1531.67 43.013 1531.33 43.013 1531 43.013C1530 43.6797 1529 44.3463 1528 45.013C1527.33 45.013 1527 45.3463 1527 46.013C1526.67 46.013 1526.33 46.013 1526 46.013C1525 46.6797 1524 47.3463 1523 48.013C1522.33 48.013 1522 48.3463 1522 49.013C1521.33 49.013 1521 49.3463 1521 50.013C1520.67 50.013 1520.33 50.013 1520 50.013C1519.33 50.013 1519 50.3463 1519 51.013C1518.33 51.013 1518 51.3463 1518 52.013C1517.67 52.013 1517.33 52.013 1517 52.013C1516.33 52.013 1516 52.3463 1516 53.013C1515.33 53.013 1515 53.3463 1515 54.013C1514.67 54.013 1514.33 54.013 1514 54.013C1513.33 54.013 1513 54.3463 1513 55.013C1512.33 55.013 1512 55.3463 1512 56.013C1511.67 56.013 1511.33 56.013 1511 56.013C1509.63 57.0246 1508.3 58.0246 1507 59.013C1506.33 59.013 1506 59.3463 1506 60.013C1505.01 59.8414 1504.34 60.1748 1504 61.013C1503.33 61.013 1503 61.3463 1503 62.013C1502.67 62.013 1502.33 62.013 1502 62.013C1501 62.6797 1500 63.3463 1499 64.013C1498.33 64.013 1498 64.3463 1498 65.013C1497.33 65.013 1497 65.3463 1497 66.013C1496.67 66.013 1496.33 66.013 1496 66.013C1494.79 66.4451 1493.79 67.1117 1493 68.013C1492.33 68.013 1492 68.3463 1492 69.013C1491.67 69.013 1491.33 69.013 1491 69.013C1490.33 69.013 1490 69.3463 1490 70.013C1489.67 70.013 1489.33 70.013 1489 70.013C1488.33 70.013 1488 70.3463 1488 71.013C1487.33 71.013 1487 71.3463 1487 72.013C1486.67 72.013 1486.33 72.013 1486 72.013C1485.33 72.013 1485 72.3463 1485 73.013C1484.67 73.013 1484.33 73.013 1484 73.013C1483.33 73.013 1483 73.3463 1483 74.013C1482.33 74.013 1482 74.3463 1482 75.013C1480.35 75.1726 1479.01 75.8393 1478 77.013C1477.67 77.013 1477.33 77.013 1477 77.013C1476 77.6797 1475 78.3463 1474 79.013C1473.33 79.013 1473 79.3463 1473 80.013C1471.89 80.0699 1470.89 80.4032 1470 81.013C1469.67 81.013 1469.33 81.013 1469 81.013C1468.33 81.013 1468 81.3463 1468 82.013C1467.33 82.013 1467 82.3463 1467 83.013C1465.89 83.0699 1464.89 83.4032 1464 84.013C1463.67 84.013 1463.33 84.013 1463 84.013C1461.67 84.6797 1460.33 85.3463 1459 86.013C1458.33 86.013 1458 86.3463 1458 87.013C1456.54 86.9456 1455.21 87.2789 1454 88.013C1453.33 88.013 1453 88.3463 1453 89.013C1452.33 89.013 1451.67 89.013 1451 89.013C1450.33 89.013 1450 89.3463 1450 90.013C1414.73 100.918 1378.73 104.084 1342 99.513C1330.7 98.088 1319.7 95.588 1309 92.013C1308.67 92.013 1308.33 92.013 1308 92.013C1305.39 91.1425 1302.72 90.4758 1300 90.013C1300 89.3463 1299.67 89.013 1299 89.013C1297.67 88.6797 1296.33 88.3463 1295 88.013C1295 87.3463 1294.67 87.013 1294 87.013C1292.67 86.6797 1291.33 86.3463 1290 86.013C1290 85.3463 1289.67 85.013 1289 85.013C1286.21 83.865 1283.54 82.5316 1281 81.013C1280.67 81.013 1280.33 81.013 1280 81.013C1279.11 80.4032 1278.11 80.0699 1277 80.013C1277 79.3463 1276.67 79.013 1276 79.013C1274.32 77.5055 1272.32 76.5055 1270 76.013C1270 75.3463 1269.67 75.013 1269 75.013C1268 74.3463 1267 73.6797 1266 73.013C1265.67 73.013 1265.33 73.013 1265 73.013C1265 72.3463 1264.67 72.013 1264 72.013C1263 71.3463 1262 70.6797 1261 70.013C1260.67 70.013 1260.33 70.013 1260 70.013C1260 69.3463 1259.67 69.013 1259 69.013C1258.67 69.013 1258.33 69.013 1258 69.013C1258 68.3463 1257.67 68.013 1257 68.013C1257 67.3463 1256.67 67.013 1256 67.013C1255.67 67.013 1255.33 67.013 1255 67.013C1255 66.3463 1254.67 66.013 1254 66.013C1254 65.3463 1253.67 65.013 1253 65.013C1252.67 65.013 1252.33 65.013 1252 65.013C1252 64.3463 1251.67 64.013 1251 64.013C1249.67 63.013 1248.33 62.013 1247 61.013C1246.67 61.013 1246.33 61.013 1246 61.013C1246 60.3463 1245.67 60.013 1245 60.013C1243.67 59.013 1242.33 58.013 1241 57.013C1240.67 57.013 1240.33 57.013 1240 57.013C1239.67 56.013 1239 55.3463 1238 55.013C1237.67 55.013 1237.33 55.013 1237 55.013C1237 54.3463 1236.67 54.013 1236 54.013C1234.67 53.013 1233.33 52.013 1232 51.013C1231.67 51.013 1231.33 51.013 1231 51.013C1231 50.3463 1230.67 50.013 1230 50.013C1229.67 50.013 1229.33 50.013 1229 50.013C1229 49.3463 1228.67 49.013 1228 49.013C1228 48.3463 1227.67 48.013 1227 48.013C1226.21 47.1117 1225.21 46.4451 1224 46.013C1223.67 46.013 1223.33 46.013 1223 46.013C1223 45.3463 1222.67 45.013 1222 45.013C1220.71 44.0246 1219.37 43.0246 1218 42.013C1217.67 42.013 1217.33 42.013 1217 42.013C1217 41.3463 1216.67 41.013 1216 41.013C1215 40.3463 1214 39.6797 1213 39.013C1212.67 39.013 1212.33 39.013 1212 39.013C1210.99 37.8393 1209.65 37.1726 1208 37.013C1208 36.3463 1207.67 36.013 1207 36.013C1206.11 35.4032 1205.11 35.0699 1204 35.013C1204 34.3463 1203.67 34.013 1203 34.013C1201.28 33.2053 1199.61 32.2053 1198 31.013C1197.67 31.013 1197.33 31.013 1197 31.013C1194.49 29.6214 1191.83 28.6214 1189 28.013C1189 27.3463 1188.67 27.013 1188 27.013C1184.8 25.6139 1181.47 24.6139 1178 24.013C1178 23.3463 1177.67 23.013 1177 23.013C1159.04 17.9239 1140.71 15.2573 1122 15.013C1122 10.013 1122 5.01298 1122 0.0129799Z" fill="#FBFBFB"/>
<path opacity="0.991" fill-rule="evenodd" clip-rule="evenodd" d="M617 0.0129799C635.579 -0.18192 653.912 1.81808 672 6.01298C672.667 6.01298 673 6.34628 673 7.01298C674.109 7.06988 675.109 7.40318 676 8.01298C676.333 8.01298 676.667 8.01298 677 8.01298C678.617 8.55098 680.284 8.88428 682 9.01298C682.667 9.01298 683 9.34628 683 10.013C685.827 10.6214 688.493 11.6214 691 13.013C691.333 13.013 691.667 13.013 692 13.013C693.333 13.6797 694.667 14.3463 696 15.013C696.333 15.013 696.667 15.013 697 15.013C699.667 16.3463 702.333 17.6797 705 19.013C705.333 19.013 705.667 19.013 706 19.013C707.72 19.8207 709.387 20.8207 711 22.013C711.333 22.013 711.667 22.013 712 22.013C713 22.6797 714 23.3463 715 24.013C715.333 24.013 715.667 24.013 716 24.013C717.014 25.1867 718.347 25.8534 720 26.013C720.667 26.013 721 26.3463 721 27.013C721.79 27.9143 722.79 28.5809 724 29.013C724.333 29.013 724.667 29.013 725 29.013C725.667 29.013 726 29.3463 726 30.013C727 30.6797 728 31.3463 729 32.013C729.333 32.013 729.667 32.013 730 32.013C730.667 32.013 731 32.3463 731 33.013C732.295 34.0014 733.628 35.0014 735 36.013C735.333 36.013 735.667 36.013 736 36.013C736.667 36.013 737 36.3463 737 37.013C737.333 37.013 737.667 37.013 738 37.013C738.667 37.013 739 37.3463 739 38.013C739.667 38.013 740 38.3463 740 39.013C740 39.6797 740.333 40.013 741 40.013C741.333 40.013 741.667 40.013 742 40.013C742.333 41.013 743 41.6797 744 42.013C744.333 42.013 744.667 42.013 745 42.013C745.667 42.013 746 42.3463 746 43.013C747.333 44.013 748.667 45.013 750 46.013C750.333 46.013 750.667 46.013 751 46.013C751.667 46.013 752 46.3463 752 47.013C752 47.6797 752.333 48.013 753 48.013C753.333 48.013 753.667 48.013 754 48.013C754.667 48.013 755 48.3463 755 49.013C756.333 50.013 757.667 51.013 759 52.013C759.333 52.013 759.667 52.013 760 52.013C760.667 52.013 761 52.3463 761 53.013C762.333 54.013 763.667 55.013 765 56.013C765.333 56.013 765.667 56.013 766 56.013C766.342 56.8512 767.008 57.1846 768 57.013C768.667 57.013 769 57.3463 769 58.013C769 58.6797 769.333 59.013 770 59.013C770.333 59.013 770.667 59.013 771 59.013C771.342 59.8512 772.008 60.1846 773 60.013C773.667 60.013 774 60.3463 774 61.013C774.79 61.9143 775.79 62.5809 777 63.013C777.333 63.013 777.667 63.013 778 63.013C778.667 63.013 779 63.3463 779 64.013C779 64.6797 779.333 65.013 780 65.013C780.333 65.013 780.667 65.013 781 65.013C782 65.6797 783 66.3463 784 67.013C784.333 67.013 784.667 67.013 785 67.013C786 67.6797 787 68.3463 788 69.013C788.333 69.013 788.667 69.013 789 69.013C789.891 69.6228 790.891 69.9561 792 70.013C792.667 70.013 793 70.3463 793 71.013C793.333 71.013 793.667 71.013 794 71.013C794.667 71.013 795 71.3463 795 72.013C795.667 72.3463 796.333 72.6797 797 73.013C797.333 73.013 797.667 73.013 798 73.013C798 73.6797 798.333 74.013 799 74.013C799.333 74.013 799.667 74.013 800 74.013C800.667 74.3463 801.333 74.6797 802 75.013C802.333 75.013 802.667 75.013 803 75.013C803.333 75.013 803.667 75.013 804 75.013C804.667 75.013 805 75.3463 805 76.013C809.079 77.1503 813.079 78.4836 817 80.013C817.333 80.013 817.667 80.013 818 80.013C857.388 89.0923 896.388 87.7589 935 76.013C935.667 76.013 936 75.6797 936 75.013C937.459 75.0804 938.792 74.7471 940 74.013C940.333 74.013 940.667 74.013 941 74.013C942.333 73.3463 943.667 72.6797 945 72.013C945.667 72.013 946 71.6797 946 71.013C947.109 70.9561 948.109 70.6228 949 70.013C949.333 70.013 949.667 70.013 950 70.013C950.667 70.013 951 69.6797 951 69.013C951.333 69.013 951.667 69.013 952 69.013C953.21 68.5809 954.21 67.9143 955 67.013C955.333 67.013 955.667 67.013 956 67.013C957 66.3463 958 65.6797 959 65.013C959.333 65.013 959.667 65.013 960 65.013C961 64.3463 962 63.6797 963 63.013C963.667 63.013 964 62.6797 964 62.013C964.333 62.013 964.667 62.013 965 62.013C966 61.3463 967 60.6797 968 60.013C968.667 60.013 969 59.6797 969 59.013C969.333 59.013 969.667 59.013 970 59.013C971 58.3463 972 57.6797 973 57.013C973.667 57.013 974 56.6797 974 56.013C974.333 56.013 974.667 56.013 975 56.013C976.372 55.0014 977.705 54.0014 979 53.013C979.667 53.013 980 52.6797 980 52.013C980.333 52.013 980.667 52.013 981 52.013C982.372 51.0014 983.705 50.0014 985 49.013C985.667 49.013 986 48.6797 986 48.013C986.333 48.013 986.667 48.013 987 48.013C987.667 48.013 988 47.6797 988 47.013C988.667 47.013 989 46.6797 989 46.013C989.333 46.013 989.667 46.013 990 46.013C991.372 45.0014 992.705 44.0014 994 43.013C994.667 43.013 995 42.6797 995 42.013C995.333 42.013 995.667 42.013 996 42.013C996.667 42.013 997 41.6797 997 41.013C997.667 41.013 998 40.6797 998 40.013C998.333 40.013 998.667 40.013 999 40.013C1000.33 39.013 1001.67 38.013 1003 37.013C1003.67 37.013 1004 36.6797 1004 36.013C1004.33 36.013 1004.67 36.013 1005 36.013C1006 35.3463 1007 34.6797 1008 34.013C1008.67 34.013 1009 33.6797 1009 33.013C1009.67 33.013 1010 32.6797 1010 32.013C1011.65 31.8534 1012.99 31.1867 1014 30.013C1014.67 30.013 1015 29.6797 1015 29.013C1015.33 29.013 1015.67 29.013 1016 29.013C1016.67 29.013 1017 28.6797 1017 28.013C1017.99 28.1846 1018.66 27.8512 1019 27.013C1019.67 27.013 1020 26.6797 1020 26.013C1020.33 26.013 1020.67 26.013 1021 26.013C1021.33 26.013 1021.67 26.013 1022 26.013C1022.67 26.013 1023 25.6797 1023 25.013C1023.67 25.013 1024 24.6797 1024 24.013C1025.65 23.8534 1026.99 23.1867 1028 22.013C1028.33 22.013 1028.67 22.013 1029 22.013C1030 21.3463 1031 20.6797 1032 20.013C1032.33 20.013 1032.67 20.013 1033 20.013C1035.67 18.6797 1038.33 17.3463 1041 16.013C1041.33 16.013 1041.67 16.013 1042 16.013C1042.67 16.013 1043 15.6797 1043 15.013C1043.33 15.013 1043.67 15.013 1044 15.013C1044.67 14.6797 1045.33 14.3463 1046 14.013C1046.33 14.013 1046.67 14.013 1047 14.013C1048.33 13.3463 1049.67 12.6797 1051 12.013C1051.33 12.013 1051.67 12.013 1052 12.013C1053.55 11.0722 1055.22 10.4055 1057 10.013C1057.67 10.013 1058 9.67968 1058 9.01298C1078.87 2.84112 1100.2 -0.15888 1122 0.0129799C1122 5.01298 1122 10.013 1122 15.013C1099.61 15.245 1077.94 19.245 1057 27.013C1056.33 27.013 1056 27.3463 1056 28.013C1053.17 28.6214 1050.51 29.6214 1048 31.013C1047.67 31.013 1047.33 31.013 1047 31.013C1046.33 31.013 1046 31.3463 1046 32.013C1045.33 32.013 1045 32.3463 1045 33.013C1043.89 33.0699 1042.89 33.4032 1042 34.013C1041.33 34.013 1041 34.3463 1041 35.013C1039.89 35.0699 1038.89 35.4032 1038 36.013C1037.33 36.013 1037 36.3463 1037 37.013C1036.67 37.013 1036.33 37.013 1036 37.013C1035 37.6797 1034 38.3463 1033 39.013C1032.67 39.013 1032.33 39.013 1032 39.013C1030.63 40.0246 1029.3 41.0246 1028 42.013C1027.33 42.013 1027 42.3463 1027 43.013C1026.67 43.013 1026.33 43.013 1026 43.013C1025 43.6797 1024 44.3463 1023 45.013C1022.33 45.013 1022 45.3463 1022 46.013C1021.67 46.013 1021.33 46.013 1021 46.013C1020 46.6797 1019 47.3463 1018 48.013C1017.33 48.013 1017 48.3463 1017 49.013C1016.33 49.013 1016 49.3463 1016 50.013C1015.67 50.013 1015.33 50.013 1015 50.013C1014.33 50.013 1014 50.3463 1014 51.013C1013.33 51.013 1013 51.3463 1013 52.013C1012.67 52.013 1012.33 52.013 1012 52.013C1011.33 52.013 1011 52.3463 1011 53.013C1010.33 53.013 1010 53.3463 1010 54.013C1009.67 54.013 1009.33 54.013 1009 54.013C1008.33 54.013 1008 54.3463 1008 55.013C1007.33 55.013 1007 55.3463 1007 56.013C1006.67 56.013 1006.33 56.013 1006 56.013C1004.63 57.0246 1003.3 58.0246 1002 59.013C1001.33 59.013 1001 59.3463 1001 60.013C1000.01 59.8414 999.342 60.1748 999 61.013C998.333 61.013 998 61.3463 998 62.013C997.667 62.013 997.333 62.013 997 62.013C996 62.6797 995 63.3463 994 64.013C993.333 64.013 993 64.3463 993 65.013C992.333 65.013 992 65.3463 992 66.013C991.667 66.013 991.333 66.013 991 66.013C989.79 66.4451 988.79 67.1117 988 68.013C987.333 68.013 987 68.3463 987 69.013C986.667 69.013 986.333 69.013 986 69.013C985.333 69.013 985 69.3463 985 70.013C984.667 70.013 984.333 70.013 984 70.013C983.333 70.013 983 70.3463 983 71.013C982.333 71.013 982 71.3463 982 72.013C981.667 72.013 981.333 72.013 981 72.013C980.333 72.013 980 72.3463 980 73.013C979.667 73.013 979.333 73.013 979 73.013C978.333 73.013 978 73.3463 978 74.013C977.333 74.013 977 74.3463 977 75.013C975.347 75.1726 974.014 75.8393 973 77.013C972.667 77.013 972.333 77.013 972 77.013C971 77.6797 970 78.3463 969 79.013C968.333 79.013 968 79.3463 968 80.013C966.891 80.0699 965.891 80.4032 965 81.013C964.667 81.013 964.333 81.013 964 81.013C963.333 81.013 963 81.3463 963 82.013C962.333 82.013 962 82.3463 962 83.013C960.891 83.0699 959.891 83.4032 959 84.013C958.667 84.013 958.333 84.013 958 84.013C956.667 84.6797 955.333 85.3463 954 86.013C953.333 86.013 953 86.3463 953 87.013C951.541 86.9456 950.208 87.2789 949 88.013C948.333 88.013 948 88.3463 948 89.013C947.333 89.013 946.667 89.013 946 89.013C945.333 89.013 945 89.3463 945 90.013C909.732 100.918 873.732 104.084 837 99.513C825.7 98.088 814.7 95.588 804 92.013C803.667 92.013 803.333 92.013 803 92.013C800.388 91.1425 797.721 90.4758 795 90.013C795 89.3463 794.667 89.013 794 89.013C792.667 88.6797 791.333 88.3463 790 88.013C790 87.3463 789.667 87.013 789 87.013C787.667 86.6797 786.333 86.3463 785 86.013C785 85.3463 784.667 85.013 784 85.013C781.211 83.865 778.544 82.5316 776 81.013C775.667 81.013 775.333 81.013 775 81.013C774.109 80.4032 773.109 80.0699 772 80.013C772 79.3463 771.667 79.013 771 79.013C769.319 77.5055 767.319 76.5055 765 76.013C765 75.3463 764.667 75.013 764 75.013C763 74.3463 762 73.6797 761 73.013C760.667 73.013 760.333 73.013 760 73.013C760 72.3463 759.667 72.013 759 72.013C758 71.3463 757 70.6797 756 70.013C755.667 70.013 755.333 70.013 755 70.013C755 69.3463 754.667 69.013 754 69.013C753.667 69.013 753.333 69.013 753 69.013C753 68.3463 752.667 68.013 752 68.013C752 67.3463 751.667 67.013 751 67.013C750.667 67.013 750.333 67.013 750 67.013C750 66.3463 749.667 66.013 749 66.013C749 65.3463 748.667 65.013 748 65.013C747.667 65.013 747.333 65.013 747 65.013C747 64.3463 746.667 64.013 746 64.013C744.667 63.013 743.333 62.013 742 61.013C741.667 61.013 741.333 61.013 741 61.013C741 60.3463 740.667 60.013 740 60.013C738.667 59.013 737.333 58.013 736 57.013C735.667 57.013 735.333 57.013 735 57.013C734.667 56.013 734 55.3463 733 55.013C732.667 55.013 732.333 55.013 732 55.013C732 54.3463 731.667 54.013 731 54.013C729.667 53.013 728.333 52.013 727 51.013C726.667 51.013 726.333 51.013 726 51.013C726 50.3463 725.667 50.013 725 50.013C724.667 50.013 724.333 50.013 724 50.013C724 49.3463 723.667 49.013 723 49.013C723 48.3463 722.667 48.013 722 48.013C721.21 47.1117 720.21 46.4451 719 46.013C718.667 46.013 718.333 46.013 718 46.013C718 45.3463 717.667 45.013 717 45.013C715.705 44.0246 714.372 43.0246 713 42.013C712.667 42.013 712.333 42.013 712 42.013C712 41.3463 711.667 41.013 711 41.013C710 40.3463 709 39.6797 708 39.013C707.667 39.013 707.333 39.013 707 39.013C705.986 37.8393 704.653 37.1726 703 37.013C703 36.3463 702.667 36.013 702 36.013C701.109 35.4032 700.109 35.0699 699 35.013C699 34.3463 698.667 34.013 698 34.013C696.28 33.2053 694.613 32.2053 693 31.013C692.667 31.013 692.333 31.013 692 31.013C689.493 29.6214 686.827 28.6214 684 28.013C684 27.3463 683.667 27.013 683 27.013C679.801 25.6139 676.468 24.6139 673 24.013C673 23.3463 672.667 23.013 672 23.013C654.044 17.9239 635.71 15.2573 617 15.013C617 10.013 617 5.01298 617 0.0129799Z" fill="#FBFBFB"/>
<path opacity="0.991" fill-rule="evenodd" clip-rule="evenodd" d="M112 0.0129799C130.579 -0.18192 148.912 1.81808 167 6.01298C167.667 6.01298 168 6.34628 168 7.01298C169.109 7.06988 170.109 7.40318 171 8.01298C171.333 8.01298 171.667 8.01298 172 8.01298C173.617 8.55098 175.284 8.88428 177 9.01298C177.667 9.01298 178 9.34628 178 10.013C180.827 10.6214 183.493 11.6214 186 13.013C186.333 13.013 186.667 13.013 187 13.013C188.333 13.6797 189.667 14.3463 191 15.013C191.333 15.013 191.667 15.013 192 15.013C194.667 16.3463 197.333 17.6797 200 19.013C200.333 19.013 200.667 19.013 201 19.013C202.72 19.8207 204.387 20.8207 206 22.013C206.333 22.013 206.667 22.013 207 22.013C208 22.6797 209 23.3463 210 24.013C210.333 24.013 210.667 24.013 211 24.013C212.014 25.1867 213.347 25.8534 215 26.013C215.667 26.013 216 26.3463 216 27.013C216.79 27.9143 217.79 28.5809 219 29.013C219.333 29.013 219.667 29.013 220 29.013C220.667 29.013 221 29.3463 221 30.013C222 30.6797 223 31.3463 224 32.013C224.333 32.013 224.667 32.013 225 32.013C225.667 32.013 226 32.3463 226 33.013C227.295 34.0014 228.628 35.0014 230 36.013C230.333 36.013 230.667 36.013 231 36.013C231.667 36.013 232 36.3463 232 37.013C232.333 37.013 232.667 37.013 233 37.013C233.667 37.013 234 37.3463 234 38.013C234.667 38.013 235 38.3463 235 39.013C235 39.6797 235.333 40.013 236 40.013C236.333 40.013 236.667 40.013 237 40.013C237.333 41.013 238 41.6797 239 42.013C239.333 42.013 239.667 42.013 240 42.013C240.667 42.013 241 42.3463 241 43.013C242.333 44.013 243.667 45.013 245 46.013C245.333 46.013 245.667 46.013 246 46.013C246.667 46.013 247 46.3463 247 47.013C247 47.6797 247.333 48.013 248 48.013C248.333 48.013 248.667 48.013 249 48.013C249.667 48.013 250 48.3463 250 49.013C251.333 50.013 252.667 51.013 254 52.013C254.333 52.013 254.667 52.013 255 52.013C255.667 52.013 256 52.3463 256 53.013C257.333 54.013 258.667 55.013 260 56.013C260.333 56.013 260.667 56.013 261 56.013C261.342 56.8512 262.008 57.1846 263 57.013C263.667 57.013 264 57.3463 264 58.013C264 58.6797 264.333 59.013 265 59.013C265.333 59.013 265.667 59.013 266 59.013C266.342 59.8512 267.008 60.1846 268 60.013C268.667 60.013 269 60.3463 269 61.013C269.79 61.9143 270.79 62.5809 272 63.013C272.333 63.013 272.667 63.013 273 63.013C273.667 63.013 274 63.3463 274 64.013C274 64.6797 274.333 65.013 275 65.013C275.333 65.013 275.667 65.013 276 65.013C277 65.6797 278 66.3463 279 67.013C279.333 67.013 279.667 67.013 280 67.013C281 67.6797 282 68.3463 283 69.013C283.333 69.013 283.667 69.013 284 69.013C284.891 69.6228 285.891 69.9561 287 70.013C287.667 70.013 288 70.3463 288 71.013C288.333 71.013 288.667 71.013 289 71.013C289.667 71.013 290 71.3463 290 72.013C290.667 72.3463 291.333 72.6797 292 73.013C292.333 73.013 292.667 73.013 293 73.013C293 73.6797 293.333 74.013 294 74.013C294.333 74.013 294.667 74.013 295 74.013C295.667 74.3463 296.333 74.6797 297 75.013C297.333 75.013 297.667 75.013 298 75.013C298.333 75.013 298.667 75.013 299 75.013C299.667 75.013 300 75.3463 300 76.013C304.079 77.1503 308.079 78.4836 312 80.013C312.333 80.013 312.667 80.013 313 80.013C352.388 89.0923 391.388 87.7589 430 76.013C430.667 76.013 431 75.6797 431 75.013C432.459 75.0804 433.792 74.7471 435 74.013C435.333 74.013 435.667 74.013 436 74.013C437.333 73.3463 438.667 72.6797 440 72.013C440.667 72.013 441 71.6797 441 71.013C442.109 70.9561 443.109 70.6228 444 70.013C444.333 70.013 444.667 70.013 445 70.013C445.667 70.013 446 69.6797 446 69.013C446.333 69.013 446.667 69.013 447 69.013C448.21 68.5809 449.21 67.9143 450 67.013C450.333 67.013 450.667 67.013 451 67.013C452 66.3463 453 65.6797 454 65.013C454.333 65.013 454.667 65.013 455 65.013C456 64.3463 457 63.6797 458 63.013C458.667 63.013 459 62.6797 459 62.013C459.333 62.013 459.667 62.013 460 62.013C461 61.3463 462 60.6797 463 60.013C463.667 60.013 464 59.6797 464 59.013C464.333 59.013 464.667 59.013 465 59.013C466 58.3463 467 57.6797 468 57.013C468.667 57.013 469 56.6797 469 56.013C469.333 56.013 469.667 56.013 470 56.013C471.372 55.0014 472.705 54.0014 474 53.013C474.667 53.013 475 52.6797 475 52.013C475.333 52.013 475.667 52.013 476 52.013C477.372 51.0014 478.705 50.0014 480 49.013C480.667 49.013 481 48.6797 481 48.013C481.333 48.013 481.667 48.013 482 48.013C482.667 48.013 483 47.6797 483 47.013C483.667 47.013 484 46.6797 484 46.013C484.333 46.013 484.667 46.013 485 46.013C486.372 45.0014 487.705 44.0014 489 43.013C489.667 43.013 490 42.6797 490 42.013C490.333 42.013 490.667 42.013 491 42.013C491.667 42.013 492 41.6797 492 41.013C492.667 41.013 493 40.6797 493 40.013C493.333 40.013 493.667 40.013 494 40.013C495.333 39.013 496.667 38.013 498 37.013C498.667 37.013 499 36.6797 499 36.013C499.333 36.013 499.667 36.013 500 36.013C501 35.3463 502 34.6797 503 34.013C503.667 34.013 504 33.6797 504 33.013C504.667 33.013 505 32.6797 505 32.013C506.653 31.8534 507.986 31.1867 509 30.013C509.667 30.013 510 29.6797 510 29.013C510.333 29.013 510.667 29.013 511 29.013C511.667 29.013 512 28.6797 512 28.013C512.992 28.1846 513.658 27.8512 514 27.013C514.667 27.013 515 26.6797 515 26.013C515.333 26.013 515.667 26.013 516 26.013C516.333 26.013 516.667 26.013 517 26.013C517.667 26.013 518 25.6797 518 25.013C518.667 25.013 519 24.6797 519 24.013C520.653 23.8534 521.986 23.1867 523 22.013C523.333 22.013 523.667 22.013 524 22.013C525 21.3463 526 20.6797 527 20.013C527.333 20.013 527.667 20.013 528 20.013C530.667 18.6797 533.333 17.3463 536 16.013C536.333 16.013 536.667 16.013 537 16.013C537.667 16.013 538 15.6797 538 15.013C538.333 15.013 538.667 15.013 539 15.013C539.667 14.6797 540.333 14.3463 541 14.013C541.333 14.013 541.667 14.013 542 14.013C543.333 13.3463 544.667 12.6797 546 12.013C546.333 12.013 546.667 12.013 547 12.013C548.55 11.0722 550.216 10.4055 552 10.013C552.667 10.013 553 9.67968 553 9.01298C573.87 2.84112 595.203 -0.15888 617 0.0129799C617 5.01298 617 10.013 617 15.013C594.605 15.245 572.938 19.245 552 27.013C551.333 27.013 551 27.3463 551 28.013C548.173 28.6214 545.507 29.6214 543 31.013C542.667 31.013 542.333 31.013 542 31.013C541.333 31.013 541 31.3463 541 32.013C540.333 32.013 540 32.3463 540 33.013C538.891 33.0699 537.891 33.4032 537 34.013C536.333 34.013 536 34.3463 536 35.013C534.891 35.0699 533.891 35.4032 533 36.013C532.333 36.013 532 36.3463 532 37.013C531.667 37.013 531.333 37.013 531 37.013C530 37.6797 529 38.3463 528 39.013C527.667 39.013 527.333 39.013 527 39.013C525.628 40.0246 524.295 41.0246 523 42.013C522.333 42.013 522 42.3463 522 43.013C521.667 43.013 521.333 43.013 521 43.013C520 43.6797 519 44.3463 518 45.013C517.333 45.013 517 45.3463 517 46.013C516.667 46.013 516.333 46.013 516 46.013C515 46.6797 514 47.3463 513 48.013C512.333 48.013 512 48.3463 512 49.013C511.333 49.013 511 49.3463 511 50.013C510.667 50.013 510.333 50.013 510 50.013C509.333 50.013 509 50.3463 509 51.013C508.333 51.013 508 51.3463 508 52.013C507.667 52.013 507.333 52.013 507 52.013C506.333 52.013 506 52.3463 506 53.013C505.333 53.013 505 53.3463 505 54.013C504.667 54.013 504.333 54.013 504 54.013C503.333 54.013 503 54.3463 503 55.013C502.333 55.013 502 55.3463 502 56.013C501.667 56.013 501.333 56.013 501 56.013C499.628 57.0246 498.295 58.0246 497 59.013C496.333 59.013 496 59.3463 496 60.013C495.008 59.8414 494.342 60.1748 494 61.013C493.333 61.013 493 61.3463 493 62.013C492.667 62.013 492.333 62.013 492 62.013C491 62.6797 490 63.3463 489 64.013C488.333 64.013 488 64.3463 488 65.013C487.333 65.013 487 65.3463 487 66.013C486.667 66.013 486.333 66.013 486 66.013C484.79 66.4451 483.79 67.1117 483 68.013C482.333 68.013 482 68.3463 482 69.013C481.667 69.013 481.333 69.013 481 69.013C480.333 69.013 480 69.3463 480 70.013C479.667 70.013 479.333 70.013 479 70.013C478.333 70.013 478 70.3463 478 71.013C477.333 71.013 477 71.3463 477 72.013C476.667 72.013 476.333 72.013 476 72.013C475.333 72.013 475 72.3463 475 73.013C474.667 73.013 474.333 73.013 474 73.013C473.333 73.013 473 73.3463 473 74.013C472.333 74.013 472 74.3463 472 75.013C470.347 75.1726 469.014 75.8393 468 77.013C467.667 77.013 467.333 77.013 467 77.013C466 77.6797 465 78.3463 464 79.013C463.333 79.013 463 79.3463 463 80.013C461.891 80.0699 460.891 80.4032 460 81.013C459.667 81.013 459.333 81.013 459 81.013C458.333 81.013 458 81.3463 458 82.013C457.333 82.013 457 82.3463 457 83.013C455.891 83.0699 454.891 83.4032 454 84.013C453.667 84.013 453.333 84.013 453 84.013C451.667 84.6797 450.333 85.3463 449 86.013C448.333 86.013 448 86.3463 448 87.013C446.541 86.9456 445.208 87.2789 444 88.013C443.333 88.013 443 88.3463 443 89.013C442.333 89.013 441.667 89.013 441 89.013C440.333 89.013 440 89.3463 440 90.013C404.732 100.918 368.732 104.084 332 99.513C320.7 98.088 309.7 95.588 299 92.013C298.667 92.013 298.333 92.013 298 92.013C295.388 91.1425 292.721 90.4758 290 90.013C290 89.3463 289.667 89.013 289 89.013C287.667 88.6797 286.333 88.3463 285 88.013C285 87.3463 284.667 87.013 284 87.013C282.667 86.6797 281.333 86.3463 280 86.013C280 85.3463 279.667 85.013 279 85.013C276.211 83.865 273.544 82.5316 271 81.013C270.667 81.013 270.333 81.013 270 81.013C269.109 80.4032 268.109 80.0699 267 80.013C267 79.3463 266.667 79.013 266 79.013C264.319 77.5055 262.319 76.5055 260 76.013C260 75.3463 259.667 75.013 259 75.013C258 74.3463 257 73.6797 256 73.013C255.667 73.013 255.333 73.013 255 73.013C255 72.3463 254.667 72.013 254 72.013C253 71.3463 252 70.6797 251 70.013C250.667 70.013 250.333 70.013 250 70.013C250 69.3463 249.667 69.013 249 69.013C248.667 69.013 248.333 69.013 248 69.013C248 68.3463 247.667 68.013 247 68.013C247 67.3463 246.667 67.013 246 67.013C245.667 67.013 245.333 67.013 245 67.013C245 66.3463 244.667 66.013 244 66.013C244 65.3463 243.667 65.013 243 65.013C242.667 65.013 242.333 65.013 242 65.013C242 64.3463 241.667 64.013 241 64.013C239.667 63.013 238.333 62.013 237 61.013C236.667 61.013 236.333 61.013 236 61.013C236 60.3463 235.667 60.013 235 60.013C233.667 59.013 232.333 58.013 231 57.013C230.667 57.013 230.333 57.013 230 57.013C229.667 56.013 229 55.3463 228 55.013C227.667 55.013 227.333 55.013 227 55.013C227 54.3463 226.667 54.013 226 54.013C224.667 53.013 223.333 52.013 222 51.013C221.667 51.013 221.333 51.013 221 51.013C221 50.3463 220.667 50.013 220 50.013C219.667 50.013 219.333 50.013 219 50.013C219 49.3463 218.667 49.013 218 49.013C218 48.3463 217.667 48.013 217 48.013C216.21 47.1117 215.21 46.4451 214 46.013C213.667 46.013 213.333 46.013 213 46.013C213 45.3463 212.667 45.013 212 45.013C210.705 44.0246 209.372 43.0246 208 42.013C207.667 42.013 207.333 42.013 207 42.013C207 41.3463 206.667 41.013 206 41.013C205 40.3463 204 39.6797 203 39.013C202.667 39.013 202.333 39.013 202 39.013C200.986 37.8393 199.653 37.1726 198 37.013C198 36.3463 197.667 36.013 197 36.013C196.109 35.4032 195.109 35.0699 194 35.013C194 34.3463 193.667 34.013 193 34.013C191.28 33.2053 189.613 32.2053 188 31.013C187.667 31.013 187.333 31.013 187 31.013C184.493 29.6214 181.827 28.6214 179 28.013C179 27.3463 178.667 27.013 178 27.013C174.801 25.6139 171.468 24.6139 168 24.013C168 23.3463 167.667 23.013 167 23.013C149.044 17.9239 130.71 15.2573 112 15.013C112 10.013 112 5.01298 112 0.0129799Z" fill="#FBFBFB"/>
<path opacity="0.991" fill-rule="evenodd" clip-rule="evenodd" d="M-386 0.0129799C-367.421 -0.18192 -349.088 1.81808 -331 6.01298C-330.333 6.01298 -330 6.34628 -330 7.01298C-328.891 7.06988 -327.891 7.40318 -327 8.01298C-326.667 8.01298 -326.333 8.01298 -326 8.01298C-324.383 8.55098 -322.716 8.88428 -321 9.01298C-320.333 9.01298 -320 9.34628 -320 10.013C-317.173 10.6214 -314.507 11.6214 -312 13.013C-311.667 13.013 -311.333 13.013 -311 13.013C-309.667 13.6797 -308.333 14.3463 -307 15.013C-306.667 15.013 -306.333 15.013 -306 15.013C-303.333 16.3463 -300.667 17.6797 -298 19.013C-297.667 19.013 -297.333 19.013 -297 19.013C-295.28 19.8207 -293.613 20.8207 -292 22.013C-291.667 22.013 -291.333 22.013 -291 22.013C-290 22.6797 -289 23.3463 -288 24.013C-287.667 24.013 -287.333 24.013 -287 24.013C-285.986 25.1867 -284.653 25.8534 -283 26.013C-282.333 26.013 -282 26.3463 -282 27.013C-281.21 27.9143 -280.21 28.5809 -279 29.013C-278.667 29.013 -278.333 29.013 -278 29.013C-277.333 29.013 -277 29.3463 -277 30.013C-276 30.6797 -275 31.3463 -274 32.013C-273.667 32.013 -273.333 32.013 -273 32.013C-272.333 32.013 -272 32.3463 -272 33.013C-270.705 34.0014 -269.372 35.0014 -268 36.013C-267.667 36.013 -267.333 36.013 -267 36.013C-266.333 36.013 -266 36.3463 -266 37.013C-265.667 37.013 -265.333 37.013 -265 37.013C-264.333 37.013 -264 37.3463 -264 38.013C-263.333 38.013 -263 38.3463 -263 39.013C-263 39.6797 -262.667 40.013 -262 40.013C-261.667 40.013 -261.333 40.013 -261 40.013C-260.667 41.013 -260 41.6797 -259 42.013C-258.667 42.013 -258.333 42.013 -258 42.013C-257.333 42.013 -257 42.3463 -257 43.013C-255.667 44.013 -254.333 45.013 -253 46.013C-252.667 46.013 -252.333 46.013 -252 46.013C-251.333 46.013 -251 46.3463 -251 47.013C-251 47.6797 -250.667 48.013 -250 48.013C-249.667 48.013 -249.333 48.013 -249 48.013C-248.333 48.013 -248 48.3463 -248 49.013C-246.667 50.013 -245.333 51.013 -244 52.013C-243.667 52.013 -243.333 52.013 -243 52.013C-242.333 52.013 -242 52.3463 -242 53.013C-240.667 54.013 -239.333 55.013 -238 56.013C-237.667 56.013 -237.333 56.013 -237 56.013C-236.658 56.8512 -235.992 57.1846 -235 57.013C-234.333 57.013 -234 57.3463 -234 58.013C-234 58.6797 -233.667 59.013 -233 59.013C-232.667 59.013 -232.333 59.013 -232 59.013C-231.658 59.8512 -230.992 60.1846 -230 60.013C-229.333 60.013 -229 60.3463 -229 61.013C-228.21 61.9143 -227.21 62.5809 -226 63.013C-225.667 63.013 -225.333 63.013 -225 63.013C-224.333 63.013 -224 63.3463 -224 64.013C-224 64.6797 -223.667 65.013 -223 65.013C-222.667 65.013 -222.333 65.013 -222 65.013C-221 65.6797 -220 66.3463 -219 67.013C-218.667 67.013 -218.333 67.013 -218 67.013C-217 67.6797 -216 68.3463 -215 69.013C-214.667 69.013 -214.333 69.013 -214 69.013C-213.109 69.6228 -212.109 69.9561 -211 70.013C-210.333 70.013 -210 70.3463 -210 71.013C-209.667 71.013 -209.333 71.013 -209 71.013C-208.333 71.013 -208 71.3463 -208 72.013C-207.333 72.3463 -206.667 72.6797 -206 73.013C-205.667 73.013 -205.333 73.013 -205 73.013C-205 73.6797 -204.667 74.013 -204 74.013C-203.667 74.013 -203.333 74.013 -203 74.013C-202.333 74.3463 -201.667 74.6797 -201 75.013C-200.667 75.013 -200.333 75.013 -200 75.013C-199.667 75.013 -199.333 75.013 -199 75.013C-198.333 75.013 -198 75.3463 -198 76.013C-193.921 77.1503 -189.921 78.4836 -186 80.013C-185.667 80.013 -185.333 80.013 -185 80.013C-145.612 89.0923 -106.612 87.7589 -68 76.013C-67.333 76.013 -67 75.6797 -67 75.013C-65.541 75.0804 -64.208 74.7471 -63 74.013C-62.667 74.013 -62.333 74.013 -62 74.013C-60.667 73.3463 -59.333 72.6797 -58 72.013C-57.333 72.013 -57 71.6797 -57 71.013C-55.891 70.9561 -54.891 70.6228 -54 70.013C-53.667 70.013 -53.333 70.013 -53 70.013C-52.333 70.013 -52 69.6797 -52 69.013C-51.667 69.013 -51.333 69.013 -51 69.013C-49.79 68.5809 -48.79 67.9143 -48 67.013C-47.667 67.013 -47.333 67.013 -47 67.013C-46 66.3463 -45 65.6797 -44 65.013C-43.667 65.013 -43.333 65.013 -43 65.013C-42 64.3463 -41 63.6797 -40 63.013C-39.333 63.013 -39 62.6797 -39 62.013C-38.667 62.013 -38.333 62.013 -38 62.013C-37 61.3463 -36 60.6797 -35 60.013C-34.333 60.013 -34 59.6797 -34 59.013C-33.667 59.013 -33.333 59.013 -33 59.013C-32 58.3463 -31 57.6797 -30 57.013C-29.333 57.013 -29 56.6797 -29 56.013C-28.667 56.013 -28.333 56.013 -28 56.013C-26.628 55.0014 -25.295 54.0014 -24 53.013C-23.333 53.013 -23 52.6797 -23 52.013C-22.667 52.013 -22.333 52.013 -22 52.013C-20.628 51.0014 -19.295 50.0014 -18 49.013C-17.333 49.013 -17 48.6797 -17 48.013C-16.667 48.013 -16.333 48.013 -16 48.013C-15.333 48.013 -15 47.6797 -15 47.013C-14.333 47.013 -14 46.6797 -14 46.013C-13.667 46.013 -13.333 46.013 -13 46.013C-11.628 45.0014 -10.295 44.0014 -9 43.013C-8.33301 43.013 -8 42.6797 -8 42.013C-7.66699 42.013 -7.33301 42.013 -7 42.013C-6.33301 42.013 -6 41.6797 -6 41.013C-5.33301 41.013 -5 40.6797 -5 40.013C-4.66699 40.013 -4.33301 40.013 -4 40.013C-2.66699 39.013 -1.33301 38.013 0 37.013C0.666992 37.013 1 36.6797 1 36.013C1.33301 36.013 1.66699 36.013 2 36.013C3 35.3463 4 34.6797 5 34.013C5.66699 34.013 6 33.6797 6 33.013C6.66699 33.013 7 32.6797 7 32.013C8.65302 31.8534 9.98599 31.1867 11 30.013C11.667 30.013 12 29.6797 12 29.013C12.333 29.013 12.667 29.013 13 29.013C13.667 29.013 14 28.6797 14 28.013C14.992 28.1846 15.658 27.8512 16 27.013C16.667 27.013 17 26.6797 17 26.013C17.333 26.013 17.667 26.013 18 26.013C18.333 26.013 18.667 26.013 19 26.013C19.667 26.013 20 25.6797 20 25.013C20.667 25.013 21 24.6797 21 24.013C22.653 23.8534 23.986 23.1867 25 22.013C25.333 22.013 25.667 22.013 26 22.013C27 21.3463 28 20.6797 29 20.013C29.333 20.013 29.667 20.013 30 20.013C32.667 18.6797 35.333 17.3463 38 16.013C38.333 16.013 38.667 16.013 39 16.013C39.667 16.013 40 15.6797 40 15.013C40.333 15.013 40.667 15.013 41 15.013C41.667 14.6797 42.333 14.3463 43 14.013C43.333 14.013 43.667 14.013 44 14.013C45.333 13.3463 46.667 12.6797 48 12.013C48.333 12.013 48.667 12.013 49 12.013C50.55 11.0722 52.216 10.4055 54 10.013C54.667 10.013 55 9.67968 55 9.01298C75.87 2.84112 97.203 -0.15888 119 0.0129799C119 5.01298 119 10.013 119 15.013C96.605 15.245 74.938 19.245 54 27.013C53.333 27.013 53 27.3463 53 28.013C50.173 28.6214 47.507 29.6214 45 31.013C44.667 31.013 44.333 31.013 44 31.013C43.333 31.013 43 31.3463 43 32.013C42.333 32.013 42 32.3463 42 33.013C40.891 33.0699 39.891 33.4032 39 34.013C38.333 34.013 38 34.3463 38 35.013C36.891 35.0699 35.891 35.4032 35 36.013C34.333 36.013 34 36.3463 34 37.013C33.667 37.013 33.333 37.013 33 37.013C32 37.6797 31 38.3463 30 39.013C29.667 39.013 29.333 39.013 29 39.013C27.628 40.0246 26.295 41.0246 25 42.013C24.333 42.013 24 42.3463 24 43.013C23.667 43.013 23.333 43.013 23 43.013C22 43.6797 21 44.3463 20 45.013C19.333 45.013 19 45.3463 19 46.013C18.667 46.013 18.333 46.013 18 46.013C17 46.6797 16 47.3463 15 48.013C14.333 48.013 14 48.3463 14 49.013C13.333 49.013 13 49.3463 13 50.013C12.667 50.013 12.333 50.013 12 50.013C11.333 50.013 11 50.3463 11 51.013C10.333 51.013 10 51.3463 10 52.013C9.66699 52.013 9.33301 52.013 9 52.013C8.33301 52.013 8 52.3463 8 53.013C7.33301 53.013 7 53.3463 7 54.013C6.66699 54.013 6.33301 54.013 6 54.013C5.33301 54.013 5 54.3463 5 55.013C4.33301 55.013 4 55.3463 4 56.013C3.66699 56.013 3.33301 56.013 3 56.013C1.62799 57.0246 0.295013 58.0246 -1 59.013C-1.66699 59.013 -2 59.3463 -2 60.013C-2.992 59.8414 -3.65799 60.1748 -4 61.013C-4.66699 61.013 -5 61.3463 -5 62.013C-5.33301 62.013 -5.66699 62.013 -6 62.013C-7 62.6797 -8 63.3463 -9 64.013C-9.66699 64.013 -10 64.3463 -10 65.013C-10.667 65.013 -11 65.3463 -11 66.013C-11.333 66.013 -11.667 66.013 -12 66.013C-13.21 66.4451 -14.21 67.1117 -15 68.013C-15.667 68.013 -16 68.3463 -16 69.013C-16.333 69.013 -16.667 69.013 -17 69.013C-17.667 69.013 -18 69.3463 -18 70.013C-18.333 70.013 -18.667 70.013 -19 70.013C-19.667 70.013 -20 70.3463 -20 71.013C-20.667 71.013 -21 71.3463 -21 72.013C-21.333 72.013 -21.667 72.013 -22 72.013C-22.667 72.013 -23 72.3463 -23 73.013C-23.333 73.013 -23.667 73.013 -24 73.013C-24.667 73.013 -25 73.3463 -25 74.013C-25.667 74.013 -26 74.3463 -26 75.013C-27.653 75.1726 -28.986 75.8393 -30 77.013C-30.333 77.013 -30.667 77.013 -31 77.013C-32 77.6797 -33 78.3463 -34 79.013C-34.667 79.013 -35 79.3463 -35 80.013C-36.109 80.0699 -37.109 80.4032 -38 81.013C-38.333 81.013 -38.667 81.013 -39 81.013C-39.667 81.013 -40 81.3463 -40 82.013C-40.667 82.013 -41 82.3463 -41 83.013C-42.109 83.0699 -43.109 83.4032 -44 84.013C-44.333 84.013 -44.667 84.013 -45 84.013C-46.333 84.6797 -47.667 85.3463 -49 86.013C-49.667 86.013 -50 86.3463 -50 87.013C-51.459 86.9456 -52.792 87.2789 -54 88.013C-54.667 88.013 -55 88.3463 -55 89.013C-55.667 89.013 -56.333 89.013 -57 89.013C-57.667 89.013 -58 89.3463 -58 90.013C-93.268 100.918 -129.268 104.084 -166 99.513C-177.3 98.088 -188.3 95.588 -199 92.013C-199.333 92.013 -199.667 92.013 -200 92.013C-202.612 91.1425 -205.279 90.4758 -208 90.013C-208 89.3463 -208.333 89.013 -209 89.013C-210.333 88.6797 -211.667 88.3463 -213 88.013C-213 87.3463 -213.333 87.013 -214 87.013C-215.333 86.6797 -216.667 86.3463 -218 86.013C-218 85.3463 -218.333 85.013 -219 85.013C-221.789 83.865 -224.456 82.5316 -227 81.013C-227.333 81.013 -227.667 81.013 -228 81.013C-228.891 80.4032 -229.891 80.0699 -231 80.013C-231 79.3463 -231.333 79.013 -232 79.013C-233.681 77.5055 -235.681 76.5055 -238 76.013C-238 75.3463 -238.333 75.013 -239 75.013C-240 74.3463 -241 73.6797 -242 73.013C-242.333 73.013 -242.667 73.013 -243 73.013C-243 72.3463 -243.333 72.013 -244 72.013C-245 71.3463 -246 70.6797 -247 70.013C-247.333 70.013 -247.667 70.013 -248 70.013C-248 69.3463 -248.333 69.013 -249 69.013C-249.333 69.013 -249.667 69.013 -250 69.013C-250 68.3463 -250.333 68.013 -251 68.013C-251 67.3463 -251.333 67.013 -252 67.013C-252.333 67.013 -252.667 67.013 -253 67.013C-253 66.3463 -253.333 66.013 -254 66.013C-254 65.3463 -254.333 65.013 -255 65.013C-255.333 65.013 -255.667 65.013 -256 65.013C-256 64.3463 -256.333 64.013 -257 64.013C-258.333 63.013 -259.667 62.013 -261 61.013C-261.333 61.013 -261.667 61.013 -262 61.013C-262 60.3463 -262.333 60.013 -263 60.013C-264.333 59.013 -265.667 58.013 -267 57.013C-267.333 57.013 -267.667 57.013 -268 57.013C-268.333 56.013 -269 55.3463 -270 55.013C-270.333 55.013 -270.667 55.013 -271 55.013C-271 54.3463 -271.333 54.013 -272 54.013C-273.333 53.013 -274.667 52.013 -276 51.013C-276.333 51.013 -276.667 51.013 -277 51.013C-277 50.3463 -277.333 50.013 -278 50.013C-278.333 50.013 -278.667 50.013 -279 50.013C-279 49.3463 -279.333 49.013 -280 49.013C-280 48.3463 -280.333 48.013 -281 48.013C-281.79 47.1117 -282.79 46.4451 -284 46.013C-284.333 46.013 -284.667 46.013 -285 46.013C-285 45.3463 -285.333 45.013 -286 45.013C-287.295 44.0246 -288.628 43.0246 -290 42.013C-290.333 42.013 -290.667 42.013 -291 42.013C-291 41.3463 -291.333 41.013 -292 41.013C-293 40.3463 -294 39.6797 -295 39.013C-295.333 39.013 -295.667 39.013 -296 39.013C-297.014 37.8393 -298.347 37.1726 -300 37.013C-300 36.3463 -300.333 36.013 -301 36.013C-301.891 35.4032 -302.891 35.0699 -304 35.013C-304 34.3463 -304.333 34.013 -305 34.013C-306.72 33.2053 -308.387 32.2053 -310 31.013C-310.333 31.013 -310.667 31.013 -311 31.013C-313.507 29.6214 -316.173 28.6214 -319 28.013C-319 27.3463 -319.333 27.013 -320 27.013C-323.199 25.6139 -326.532 24.6139 -330 24.013C-330 23.3463 -330.333 23.013 -331 23.013C-348.956 17.9239 -367.29 15.2573 -386 15.013C-386 10.013 -386 5.01298 -386 0.0129799Z" fill="#FBFBFB"/>
</svg>
