<svg width="25" height="30" viewBox="0 0 25 30" fill="none" xmlns="http://www.w3.org/2000/svg">
<path d="M22.4363 6.92L18.0813 2.5625C16.4275 0.91 14.23 0 11.8938 0H6.25C2.80375 0 0 2.80375 0 6.25V23.75C0 27.1963 2.80375 30 6.25 30H18.75C22.1963 30 25 27.1963 25 23.75V13.1062C25 10.7675 24.0888 8.5725 22.4363 6.92ZM20.6688 8.68875C21.0663 9.085 21.4025 9.52625 21.675 10.0013H16.2488C15.5588 10.0013 14.9988 9.44 14.9988 8.75125V3.32375C15.4738 3.59625 15.915 3.9325 16.3125 4.33L20.6675 8.6875L20.6688 8.68875ZM22.5 23.7512C22.5 25.8187 20.8175 27.5012 18.75 27.5012H6.25C4.1825 27.5012 2.5 25.8187 2.5 23.7512V6.25C2.5 4.1825 4.1825 2.5 6.25 2.5H11.8938C12.0975 2.5 12.3 2.51 12.5 2.52875V8.75C12.5 10.8175 14.1825 12.5 16.25 12.5H22.4713C22.49 12.7 22.5 12.9025 22.5 13.1062V23.7512ZM17.1338 20.1325C17.6225 20.62 17.6225 21.4113 17.1338 21.9L15.1175 23.9175C14.3963 24.6388 13.4475 25 12.5 25C11.5525 25 10.6038 24.6388 9.8825 23.9175L7.86625 21.9C7.3775 21.4113 7.3775 20.62 7.86625 20.1325C8.355 19.6438 9.145 19.6438 9.63375 20.1325L11.25 21.7488V16.2513C11.25 15.5613 11.8088 15.0013 12.5 15.0013C13.1913 15.0013 13.75 15.5613 13.75 16.2513V21.7488L15.3663 20.1325C15.855 19.6438 16.645 19.6438 17.1338 20.1325Z" fill="#1C3C99"/>
</svg>
