<svg width="30" height="23" viewBox="0 0 30 23" fill="none" xmlns="http://www.w3.org/2000/svg">
<path d="M29.7768 10.2265C28.6793 7.82645 24.3755 0 15.0002 0C5.62498 0 1.32112 7.82645 0.223595 10.2265C0.0762639 10.5481 0 10.8978 0 11.2515C0 11.6053 0.0762639 11.9549 0.223595 12.2766C1.32112 14.6741 5.62498 22.5006 15.0002 22.5006C24.3755 22.5006 28.6793 14.6741 29.7768 12.2741C29.9239 11.9528 30 11.6036 30 11.2503C30 10.897 29.9239 10.5478 29.7768 10.2265ZM15.0002 20.0005C7.11627 20.0005 3.43743 13.2928 2.4999 11.264C3.43743 9.20774 7.11627 2.50006 15.0002 2.50006C22.8654 2.50006 26.5455 9.17899 27.5005 11.2503C26.5455 13.3216 22.8654 20.0005 15.0002 20.0005Z" fill="#1C3C99"/>
<path d="M15.0002 5C13.764 5 12.5556 5.36657 11.5278 6.05334C10.4999 6.74012 9.69883 7.71626 9.22577 8.85833C8.75271 10.0004 8.62893 11.2571 8.8701 12.4695C9.11126 13.6819 9.70653 14.7956 10.5806 15.6697C11.4547 16.5438 12.5684 17.1391 13.7808 17.3802C14.9932 17.6214 16.2499 17.4976 17.392 17.0246C18.5341 16.5515 19.5102 15.7504 20.197 14.7226C20.8838 13.6947 21.2503 12.4863 21.2503 11.2502C21.2483 9.59312 20.5892 8.00452 19.4175 6.83282C18.2458 5.66112 16.6572 5.00198 15.0002 5ZM15.0002 15.0003C14.2585 15.0003 13.5334 14.7803 12.9167 14.3683C12.3 13.9562 11.8194 13.3705 11.5355 12.6853C11.2517 12 11.1774 11.246 11.3221 10.5186C11.4668 9.79111 11.824 9.1229 12.3484 8.59844C12.8729 8.07398 13.5411 7.71682 14.2686 7.57212C14.996 7.42742 15.75 7.50169 16.4353 7.78552C17.1205 8.06936 17.7062 8.55002 18.1183 9.16672C18.5303 9.78342 18.7503 10.5085 18.7503 11.2502C18.7503 12.2447 18.3552 13.1986 17.6519 13.9019C16.9486 14.6052 15.9948 15.0003 15.0002 15.0003Z" fill="#1C3C99"/>
</svg>
