<svg width="18" height="22" viewBox="0 0 18 22" fill="none" xmlns="http://www.w3.org/2000/svg">
<path d="M8.8 11C9.405 11 9.92292 10.7846 10.3537 10.3538C10.7846 9.92292 11 9.405 11 8.8C11 8.195 10.7846 7.67708 10.3537 7.24625C9.92292 6.81542 9.405 6.6 8.8 6.6C8.195 6.6 7.67708 6.81542 7.24625 7.24625C6.81542 7.67708 6.6 8.195 6.6 8.8C6.6 9.405 6.81542 9.92292 7.24625 10.3538C7.67708 10.7846 8.195 11 8.8 11ZM8.8 22C5.84833 19.4883 3.64375 17.1554 2.18625 15.0013C0.72875 12.8471 0 10.8533 0 9.02C0 6.27 0.884583 4.07917 2.65375 2.4475C4.42292 0.815834 6.47167 0 8.8 0C11.1283 0 13.1771 0.815834 14.9462 2.4475C16.7154 4.07917 17.6 6.27 17.6 9.02C17.6 10.8533 16.8712 12.8471 15.4137 15.0013C13.9562 17.1554 11.7517 19.4883 8.8 22Z" fill="#F26723"/>
</svg>
