<svg width="18" height="16" viewBox="0 0 18 16" fill="none" xmlns="http://www.w3.org/2000/svg">
<path d="M5.4 14.4V0H14.4V4.5H15.3C16.05 4.5 16.6875 4.7625 17.2125 5.2875C17.7375 5.8125 18 6.45 18 7.2V14.4H5.4ZM2.25 15.3C2.88 15.3 3.4125 15.0825 3.8475 14.6475C4.2825 14.2125 4.5 13.68 4.5 13.05V5.85C4.5 5.22 4.2825 4.6875 3.8475 4.2525C3.4125 3.8175 2.88 3.6 2.25 3.6C1.62 3.6 1.0875 3.8175 0.6525 4.2525C0.2175 4.6875 0 5.22 0 5.85V13.05C0 13.68 0.2175 14.2125 0.6525 14.6475C1.0875 15.0825 1.62 15.3 2.25 15.3ZM7.2 4.5H12.6V1.8H7.2V4.5ZM12.6 9C12.855 9 13.0688 8.91375 13.2413 8.74125C13.4137 8.56875 13.5 8.355 13.5 8.1C13.5 7.845 13.4137 7.63125 13.2413 7.45875C13.0688 7.28625 12.855 7.2 12.6 7.2C12.345 7.2 12.1313 7.28625 11.9587 7.45875C11.7863 7.63125 11.7 7.845 11.7 8.1C11.7 8.355 11.7863 8.56875 11.9587 8.74125C12.1313 8.91375 12.345 9 12.6 9ZM15.3 9C15.555 9 15.7687 8.91375 15.9412 8.74125C16.1137 8.56875 16.2 8.355 16.2 8.1C16.2 7.845 16.1137 7.63125 15.9412 7.45875C15.7687 7.28625 15.555 7.2 15.3 7.2C15.045 7.2 14.8313 7.28625 14.6587 7.45875C14.4862 7.63125 14.4 7.845 14.4 8.1C14.4 8.355 14.4862 8.56875 14.6587 8.74125C14.8313 8.91375 15.045 9 15.3 9ZM12.6 11.7C12.855 11.7 13.0688 11.6138 13.2413 11.4412C13.4137 11.2688 13.5 11.055 13.5 10.8C13.5 10.545 13.4137 10.3313 13.2413 10.1588C13.0688 9.98625 12.855 9.9 12.6 9.9C12.345 9.9 12.1313 9.98625 11.9587 10.1588C11.7863 10.3313 11.7 10.545 11.7 10.8C11.7 11.055 11.7863 11.2688 11.9587 11.4412C12.1313 11.6138 12.345 11.7 12.6 11.7ZM15.3 11.7C15.555 11.7 15.7687 11.6138 15.9412 11.4412C16.1137 11.2688 16.2 11.055 16.2 10.8C16.2 10.545 16.1137 10.3313 15.9412 10.1588C15.7687 9.98625 15.555 9.9 15.3 9.9C15.045 9.9 14.8313 9.98625 14.6587 10.1588C14.4862 10.3313 14.4 10.545 14.4 10.8C14.4 11.055 14.4862 11.2688 14.6587 11.4412C14.8313 11.6138 15.045 11.7 15.3 11.7ZM7.2 11.7H10.8V7.2H7.2V11.7Z" fill="#20A4CC"/>
</svg>
