<svg width="25" height="30" viewBox="0 0 25 30" fill="none" xmlns="http://www.w3.org/2000/svg">
<path d="M18.75 0H6.25C2.80375 0 0 2.80375 0 6.25V25C0 27.7575 2.2425 30 5 30H18.75C22.1963 30 25 27.1962 25 23.75V6.25C25 2.80375 22.1963 0 18.75 0ZM22.5 6.25V20H7.5V2.5H12.5V12.9338C12.5 13.7125 13.4888 14.0462 13.9613 13.4275L15.625 11.2487L17.2888 13.4275C17.7613 14.0462 18.75 13.7125 18.75 12.9338V2.5C20.8175 2.5 22.5 4.1825 22.5 6.25ZM5 2.73V20C4.085 20 3.23875 20.265 2.5 20.695V6.25C2.5 4.6225 3.54875 3.2475 5 2.73ZM18.75 27.5H5C1.71375 27.4413 1.71625 22.5575 5 22.5H22.5V23.75C22.5 25.8175 20.8175 27.5 18.75 27.5Z" fill="#1C3C99"/>
</svg>
