<svg width="30" height="30" viewBox="0 0 30 30" fill="none" xmlns="http://www.w3.org/2000/svg">
<path d="M6.61767 23.3823H12.7941V17.2059H6.61767V23.3823ZM17.2059 23.3823H23.3823V17.2059H17.2059V23.3823ZM6.61767 12.7941H12.7941V6.61767H6.61767V12.7941ZM17.2059 12.7941H23.3823V6.61767H17.2059V12.7941ZM3.19007 30C2.29865 30 1.54412 29.6912 0.926473 29.0735C0.308824 28.4559 0 27.7013 0 26.8099V3.19007C0 2.29866 0.308824 1.54412 0.926473 0.926473C1.54412 0.308824 2.29865 0 3.19007 0H26.8099C27.7013 0 28.4559 0.308824 29.0735 0.926473C29.6912 1.54412 30 2.29866 30 3.19007V26.8099C30 27.7013 29.6912 28.4559 29.0735 29.0735C28.4559 29.6912 27.7013 30 26.8099 30H3.19007ZM3.19007 27.353H26.8099C26.9457 27.353 27.0701 27.2964 27.1833 27.1833C27.2964 27.0702 27.353 26.9457 27.353 26.8099V3.19007C27.353 3.0543 27.2964 2.92985 27.1833 2.8167C27.0701 2.70358 26.9457 2.64702 26.8099 2.64702H3.19007C3.0543 2.64702 2.92985 2.70358 2.8167 2.8167C2.70358 2.92985 2.64702 3.0543 2.64702 3.19007V26.8099C2.64702 26.9457 2.70358 27.0702 2.8167 27.1833C2.92985 27.2964 3.0543 27.353 3.19007 27.353Z" fill="#1C3C99"/>
</svg>
