<svg width="40" height="40" viewBox="0 0 40 40" fill="none" xmlns="http://www.w3.org/2000/svg">
<path d="M24.8 13.7403L18.65 19.8415L24.8 25.9428L22 28.7702L13 19.8415L22 10.9128L24.8 13.7403ZM40 19.8415C40 17.0968 39.475 14.5174 38.425 12.1033C37.375 9.68928 35.95 7.58938 34.15 5.80364C32.35 4.01791 30.2333 2.6042 27.8 1.56252C25.3667 0.520839 22.7667 -9.87277e-07 20 -8.67301e-07C17.2333 -7.47324e-07 14.6333 0.520839 12.2 1.56252C9.76667 2.6042 7.65 4.01791 5.85 5.80365C4.05 7.58938 2.625 9.68928 1.575 12.1033C0.525001 14.5174 7.53293e-07 17.0968 8.74228e-07 19.8415C9.95163e-07 22.5863 0.525001 25.1657 1.575 27.5797C2.625 29.9938 4.05 32.0937 5.85 33.8794C7.65 35.6651 9.76667 37.0788 12.2 38.1205C14.6333 39.1622 17.2333 39.6831 20 39.6831C22.7667 39.6831 25.3667 39.1622 27.8 38.1205C30.2333 37.0788 32.35 35.6651 34.15 33.8794C35.95 32.0937 37.375 29.9938 38.425 27.5797C39.475 25.1657 40 22.5863 40 19.8415ZM36 19.8415C36 24.2728 34.45 28.0262 31.35 31.1016C28.25 34.177 24.4667 35.7147 20 35.7147C15.5333 35.7147 11.75 34.177 8.65 31.1016C5.55 28.0262 4 24.2728 4 19.8415C4 15.4103 5.55 11.6569 8.65 8.58146C11.75 5.50602 15.5333 3.9683 20 3.9683C24.4667 3.9683 28.25 5.50602 31.35 8.58146C34.45 11.6569 36 15.4103 36 19.8415Z" fill="#F26723"/>
</svg>
