<svg width="18" height="18" viewBox="0 0 18 18" fill="none" xmlns="http://www.w3.org/2000/svg">
<path d="M8.1 17.91C6.96 17.79 5.89875 17.4788 4.91625 16.9762C3.93375 16.4737 3.07875 15.8212 2.35125 15.0187C1.62375 14.2162 1.05 13.2975 0.63 12.2625C0.21 11.2275 0 10.125 0 8.955C0 7.59 0.27375 6.33 0.82125 5.175C1.36875 4.02 2.115 3.03 3.06 2.205H0.9V0.405H6.3V5.805H4.5V3.3525C3.675 4.0125 3.01875 4.82625 2.53125 5.79375C2.04375 6.76125 1.8 7.815 1.8 8.955C1.8 10.8 2.40375 12.3937 3.61125 13.7362C4.81875 15.0787 6.315 15.8625 8.1 16.0875V17.91ZM7.7175 13.095L3.915 9.27L5.175 8.01L7.7175 10.5525L12.825 5.445L14.085 6.7275L7.7175 13.095ZM11.7 17.505V12.105H13.5V14.5575C14.325 13.8825 14.9812 13.065 15.4688 12.105C15.9562 11.145 16.2 10.095 16.2 8.955C16.2 7.11 15.5962 5.51625 14.3888 4.17375C13.1812 2.83125 11.685 2.0475 9.9 1.8225V0C12.18 0.225 14.1 1.185 15.66 2.88C17.22 4.575 18 6.6 18 8.955C18 10.32 17.7262 11.58 17.1787 12.735C16.6312 13.89 15.885 14.88 14.94 15.705H17.1V17.505H11.7Z" fill="#20A4CC"/>
</svg>
