<svg width="20" height="20" viewBox="0 0 20 20" fill="none" xmlns="http://www.w3.org/2000/svg">
<path d="M15.8333 3.33333H14.9167C14.7233 2.39284 14.2115 1.54779 13.4677 0.940599C12.7239 0.333408 11.7935 0.0012121 10.8333 0L9.16667 0C8.2065 0.0012121 7.2761 0.333408 6.53229 0.940599C5.78849 1.54779 5.27675 2.39284 5.08333 3.33333H4.16667C3.06201 3.33466 2.00297 3.77407 1.22185 4.55518C0.440735 5.3363 0.00132321 6.39534 0 7.5L0 10H20V7.5C19.9987 6.39534 19.5593 5.3363 18.7782 4.55518C17.997 3.77407 16.938 3.33466 15.8333 3.33333ZM6.82 3.33333C6.99174 2.84758 7.30936 2.42674 7.72942 2.12841C8.14948 1.83007 8.65145 1.6688 9.16667 1.66667H10.8333C11.3486 1.6688 11.8505 1.83007 12.2706 2.12841C12.6906 2.42674 13.0083 2.84758 13.18 3.33333H6.82Z" fill="#173969"/>
<path d="M10.8333 12.5013C10.8333 12.7223 10.7455 12.9343 10.5893 13.0906C10.433 13.2468 10.221 13.3346 10 13.3346C9.77899 13.3346 9.56703 13.2468 9.41075 13.0906C9.25447 12.9343 9.16667 12.7223 9.16667 12.5013V11.668H0V15.8346C0.00132321 16.9393 0.440735 17.9983 1.22185 18.7795C2.00297 19.5606 3.06201 20 4.16667 20.0013H15.8333C16.938 20 17.997 19.5606 18.7782 18.7795C19.5593 17.9983 19.9987 16.9393 20 15.8346V11.668H10.8333V12.5013Z" fill="#173969"/>
</svg>
