<svg width="24" height="16" viewBox="0 0 24 16" fill="none" xmlns="http://www.w3.org/2000/svg">
<path d="M11.7333 12.8C13.0667 12.8 14.2 12.3333 15.1333 11.4C16.0667 10.4667 16.5333 9.33333 16.5333 8C16.5333 6.66667 16.0667 5.53333 15.1333 4.6C14.2 3.66667 13.0667 3.2 11.7333 3.2C10.4 3.2 9.26667 3.66667 8.33333 4.6C7.4 5.53333 6.93333 6.66667 6.93333 8C6.93333 9.33333 7.4 10.4667 8.33333 11.4C9.26667 12.3333 10.4 12.8 11.7333 12.8ZM11.7333 10.88C10.9333 10.88 10.2533 10.6 9.69333 10.04C9.13333 9.48 8.85333 8.8 8.85333 8C8.85333 7.2 9.13333 6.52 9.69333 5.96C10.2533 5.4 10.9333 5.12 11.7333 5.12C12.5333 5.12 13.2133 5.4 13.7733 5.96C14.3333 6.52 14.6133 7.2 14.6133 8C14.6133 8.8 14.3333 9.48 13.7733 10.04C13.2133 10.6 12.5333 10.88 11.7333 10.88ZM11.7333 16C9.13778 16 6.77333 15.2756 4.64 13.8267C2.50667 12.3778 0.96 10.4356 0 8C0.96 5.56444 2.50667 3.62222 4.64 2.17333C6.77333 0.724445 9.13778 0 11.7333 0C14.3289 0 16.6933 0.724445 18.8267 2.17333C20.96 3.62222 22.5067 5.56444 23.4667 8C22.5067 10.4356 20.96 12.3778 18.8267 13.8267C16.6933 15.2756 14.3289 16 11.7333 16Z" fill="#333333"/>
</svg>
