<svg width="18" height="14" viewBox="0 0 18 14" fill="none" xmlns="http://www.w3.org/2000/svg">
<path d="M0 13.0909V10.8C0 10.3364 0.119318 9.91023 0.357955 9.52159C0.596591 9.13295 0.913636 8.83636 1.30909 8.63182C2.15455 8.20909 3.01364 7.89204 3.88636 7.68068C4.75909 7.46932 5.64545 7.36364 6.54545 7.36364C7.44545 7.36364 8.33182 7.46932 9.20455 7.68068C10.0773 7.89204 10.9364 8.20909 11.7818 8.63182C12.1773 8.83636 12.4943 9.13295 12.733 9.52159C12.9716 9.91023 13.0909 10.3364 13.0909 10.8V13.0909H0ZM14.7273 13.0909V10.6364C14.7273 10.0364 14.5602 9.46023 14.2261 8.90795C13.892 8.35568 13.4182 7.88182 12.8045 7.48636C13.5 7.56818 14.1545 7.70795 14.7682 7.90568C15.3818 8.10341 15.9545 8.34545 16.4864 8.63182C16.9773 8.90454 17.3523 9.20795 17.6114 9.54204C17.8705 9.87614 18 10.2409 18 10.6364V13.0909H14.7273ZM6.54545 6.54545C5.64545 6.54545 4.875 6.225 4.23409 5.58409C3.59318 4.94318 3.27273 4.17273 3.27273 3.27273C3.27273 2.37273 3.59318 1.60227 4.23409 0.961364C4.875 0.320455 5.64545 0 6.54545 0C7.44545 0 8.21591 0.320455 8.85682 0.961364C9.49773 1.60227 9.81818 2.37273 9.81818 3.27273C9.81818 4.17273 9.49773 4.94318 8.85682 5.58409C8.21591 6.225 7.44545 6.54545 6.54545 6.54545ZM14.7273 3.27273C14.7273 4.17273 14.4068 4.94318 13.7659 5.58409C13.125 6.225 12.3545 6.54545 11.4545 6.54545C11.3045 6.54545 11.1136 6.52841 10.8818 6.49432C10.65 6.46023 10.4591 6.42273 10.3091 6.38182C10.6773 5.94545 10.9602 5.46136 11.158 4.92954C11.3557 4.39773 11.4545 3.84545 11.4545 3.27273C11.4545 2.7 11.3557 2.14773 11.158 1.61591C10.9602 1.08409 10.6773 0.6 10.3091 0.163636C10.5 0.0954545 10.6909 0.0511364 10.8818 0.0306818C11.0727 0.0102273 11.2636 0 11.4545 0C12.3545 0 13.125 0.320455 13.7659 0.961364C14.4068 1.60227 14.7273 2.37273 14.7273 3.27273Z" fill="#20A4CC"/>
</svg>
