<svg width="23" height="16" viewBox="0 0 23 16" fill="none" xmlns="http://www.w3.org/2000/svg">
<path d="M11.4381 12.4381C12.6881 12.4381 13.7505 12.0006 14.6255 11.1256C15.5005 10.2506 15.938 9.18808 15.938 7.93808C15.938 6.68808 15.5005 5.62558 14.6255 4.75058C13.7505 3.87558 12.6881 3.43808 11.4381 3.43808C10.1881 3.43808 9.12555 3.87558 8.25055 4.75058C7.37555 5.62558 6.93805 6.68808 6.93805 7.93808C6.93805 9.18808 7.37555 10.2506 8.25055 11.1256C9.12555 12.0006 10.1881 12.4381 11.4381 12.4381ZM11.4406 10.3413C10.7737 10.3413 10.206 10.1079 9.73752 9.6411C9.26904 9.17428 9.0348 8.60744 9.0348 7.94058C9.0348 7.27369 9.26821 6.70602 9.73503 6.23755C10.2018 5.76907 10.7687 5.53483 11.4355 5.53483C12.1024 5.53483 12.6701 5.76823 13.1386 6.23505C13.6071 6.70187 13.8413 7.26871 13.8413 7.93558C13.8413 8.60246 13.6079 9.17013 13.1411 9.6386C12.6743 10.1071 12.1074 10.3413 11.4406 10.3413ZM11.4381 15.8762C8.89167 15.8762 6.58315 15.1499 4.5125 13.6973C2.44183 12.2448 0.937667 10.325 0 7.93808C0.937667 5.55111 2.44183 3.63136 4.5125 2.17883C6.58315 0.726275 8.89167 0 11.4381 0C13.9844 0 16.2929 0.726275 18.3636 2.17883C20.4343 3.63136 21.9384 5.55111 22.8761 7.93808C21.9384 10.325 20.4343 12.2448 18.3636 13.6973C16.2929 15.1499 13.9844 15.8762 11.4381 15.8762ZM11.4393 13.4381C13.3124 13.4381 15.0317 12.9399 16.5973 11.9435C18.1629 10.9471 19.3623 9.61199 20.1957 7.93808C19.3623 6.26416 18.1624 4.92902 16.596 3.93265C15.0296 2.93627 13.3099 2.43808 11.4368 2.43808C9.56372 2.43808 7.84438 2.93627 6.2788 3.93265C4.71323 4.92902 3.51378 6.26416 2.68045 7.93808C3.51378 9.61199 4.71366 10.9471 6.28008 11.9435C7.84649 12.9399 9.56623 13.4381 11.4393 13.4381Z" fill="#666666"/>
</svg>
