<svg width="22" height="23" viewBox="0 0 22 23" fill="none" xmlns="http://www.w3.org/2000/svg">
<path d="M10.9907 15.8925L12.5293 14.3556L10.7708 12.5991H15.3869V10.4035H10.7708L12.5293 8.64708L10.9907 7.11017L6.59439 11.5013L10.9907 15.8925ZM10.9907 22.4792C9.47028 22.4792 8.0415 22.191 6.7043 21.6147C5.3671 21.0384 4.20393 20.2562 3.21477 19.2682C2.22561 18.2802 1.44252 17.1183 0.865514 15.7827C0.288505 14.4471 0 13.0199 0 11.5013C0 9.98272 0.288505 8.55559 0.865514 7.21995C1.44252 5.88431 2.22561 4.72248 3.21477 3.73447C4.20393 2.74646 5.3671 1.96429 6.7043 1.38795C8.0415 0.811607 9.47028 0.523438 10.9907 0.523438C12.511 0.523438 13.9398 0.811607 15.277 1.38795C16.6142 1.96429 17.7774 2.74646 18.7665 3.73447C19.7557 4.72248 20.5388 5.88431 21.1158 7.21995C21.6928 8.55559 21.9813 9.98272 21.9813 11.5013C21.9813 13.0199 21.6928 14.4471 21.1158 15.7827C20.5388 17.1183 19.7557 18.2802 18.7665 19.2682C17.7774 20.2562 16.6142 21.0384 15.277 21.6147C13.9398 22.191 12.511 22.4792 10.9907 22.4792Z" fill="white"/>
</svg>
