<svg width="40" height="42" viewBox="0 0 40 42" fill="none" xmlns="http://www.w3.org/2000/svg">
<path d="M15.2 14.3517L21.35 20.7244L15.2 27.0972L18 30.0504L27 20.7244L18 11.3984L15.2 14.3517ZM-8.74228e-07 20.7244C-7.53293e-07 17.8576 0.525001 15.1634 1.575 12.6419C2.625 10.1204 4.05 7.9271 5.85 6.0619C7.65 4.1967 9.76667 2.72008 12.2 1.63205C14.6333 0.544015 17.2333 -1.03121e-06 20 -9.05894e-07C22.7667 -7.80579e-07 25.3667 0.544016 27.8 1.63205C30.2333 2.72008 32.35 4.1967 34.15 6.0619C35.95 7.9271 37.375 10.1204 38.425 12.6419C39.475 15.1634 40 17.8576 40 20.7244C40 23.5913 39.475 26.2855 38.425 28.807C37.375 31.3284 35.95 33.5218 34.15 35.387C32.35 37.2522 30.2333 38.7288 27.8 39.8168C25.3667 40.9049 22.7667 41.4489 20 41.4489C17.2333 41.4489 14.6333 40.9049 12.2 39.8168C9.76666 38.7288 7.65 37.2522 5.85 35.387C4.05 33.5218 2.625 31.3284 1.575 28.807C0.525 26.2855 -9.95163e-07 23.5913 -8.74228e-07 20.7244ZM4 20.7244C4 25.3529 5.55 29.2733 8.65 32.4856C11.75 35.6979 15.5333 37.304 20 37.304C24.4667 37.304 28.25 35.6979 31.35 32.4856C34.45 29.2733 36 25.3529 36 20.7244C36 16.096 34.45 12.1756 31.35 8.96332C28.25 5.75103 24.4667 4.14489 20 4.14489C15.5333 4.14489 11.75 5.75103 8.65 8.96332C5.55 12.1756 4 16.096 4 20.7244Z" fill="#F26723"/>
</svg>
