<svg width="42" height="43" viewBox="0 0 42 43" fill="none" xmlns="http://www.w3.org/2000/svg">
<rect y="0.0703125" width="42" height="42.2111" rx="10" fill="#20A4CC"/>
<path opacity="0.975" fill-rule="evenodd" clip-rule="evenodd" d="M17.6093 11.125C17.871 11.125 18.1288 11.125 18.3905 11.125C19.5819 11.494 20.1093 12.3067 19.9725 13.559C19.8553 14.1283 19.5468 14.5601 19.0546 14.8546C19.0428 14.8938 19.0272 14.9331 19.0155 14.9724C19.1444 15.8243 19.2772 16.6723 19.4061 17.5242C20.5663 17.5163 21.7225 17.5242 22.8827 17.5438C23.4257 17.6577 23.6639 17.9914 23.6054 18.5449C23.535 18.8629 23.3475 19.0631 23.0389 19.1534C21.9178 19.1731 20.8007 19.1809 19.6796 19.1731C19.7382 19.6873 19.8163 20.1977 19.9139 20.7042C21.8553 20.7356 23.7929 20.7552 25.7343 20.763C26.1483 20.8494 26.3866 21.1085 26.4569 21.5286C26.996 23.3306 27.5624 25.1247 28.1561 26.907C28.5585 26.7382 28.9608 26.5773 29.3671 26.4163C30.1718 26.3613 30.5038 26.7343 30.3632 27.5352C30.3007 27.6647 30.2186 27.7747 30.1093 27.8689C29.3514 28.2065 28.5819 28.5206 27.8046 28.8111C27.3241 28.8818 26.9921 28.6894 26.8085 28.2418C26.2108 26.2946 25.6054 24.3513 24.9921 22.4119C22.9882 22.4001 20.9803 22.3844 18.9764 22.3727C18.6014 22.2392 18.3983 21.9722 18.371 21.5678C18.0468 19.3929 17.6991 17.218 17.3358 15.0509C16.1952 14.5248 15.785 13.6454 16.1053 12.4205C16.3983 11.7414 16.8983 11.3095 17.6093 11.125Z" fill="white"/>
<path opacity="0.97" fill-rule="evenodd" clip-rule="evenodd" d="M19.5249 31.2273C19.0444 31.2273 18.5601 31.2273 18.0796 31.2273C15.2983 30.7954 13.3921 29.2643 12.3569 26.634C11.521 23.7916 12.1538 21.338 14.2515 19.2729C14.6655 18.9078 15.1225 18.6095 15.6186 18.37C16.4116 18.3307 16.7319 18.7037 16.5757 19.4889C16.5093 19.6341 16.4116 19.7598 16.2827 19.8618C14.5913 20.8865 13.7046 22.3979 13.6265 24.3962C13.7671 26.846 14.978 28.5027 17.2593 29.3625C19.5132 29.9513 21.396 29.3546 22.9038 27.5762C23.1851 27.1993 23.4194 26.7949 23.6069 26.3592C24.0444 25.8527 24.5015 25.8409 24.9741 26.3199C25.1186 26.5829 25.146 26.8578 25.0522 27.1443C23.9311 29.492 22.0874 30.8543 19.5249 31.2273Z" fill="white"/>
<path d="M26.543 20.3127H22.3945C22.168 20.3127 21.9844 20.1282 21.9844 19.9005C21.9844 19.6728 22.168 19.4883 22.3945 19.4883H25.9766L27.4805 15.4368C27.5586 15.2248 27.7969 15.1148 28.0078 15.1933C28.2188 15.2719 28.3281 15.5113 28.25 15.7233L26.543 20.3127Z" fill="white"/>
</svg>
