<svg width="18" height="15" viewBox="0 0 18 15" fill="none" xmlns="http://www.w3.org/2000/svg">
<path d="M1.8 14.4C1.305 14.4 0.88125 14.2238 0.52875 13.8713C0.17625 13.5188 0 13.095 0 12.6V1.8C0 1.305 0.17625 0.88125 0.52875 0.52875C0.88125 0.17625 1.305 0 1.8 0H16.2C16.695 0 17.1187 0.17625 17.4713 0.52875C17.8237 0.88125 18 1.305 18 1.8V12.6C18 13.095 17.8237 13.5188 17.4713 13.8713C17.1187 14.2238 16.695 14.4 16.2 14.4H1.8ZM9 8.1L16.2 3.6V1.8L9 6.3L1.8 1.8V3.6L9 8.1Z" fill="#1C3C99"/>
</svg>
